<svg width="724" height="724" viewBox="0 0 724 724" fill="none" xmlns="http://www.w3.org/2000/svg">
<path d="M362 724C561.927 724 724 561.927 724 362C724 162.073 561.927 0 362 0C162.073 0 0 162.073 0 362C0 561.927 162.073 724 362 724Z" fill="url(#paint0_linear)"/>
<path d="M362 718C558.613 718 718 558.613 718 362C718 165.387 558.613 6 362 6C165.387 6 6 165.387 6 362C6 558.613 165.387 718 362 718Z" fill="#B45BC4"/>
<path d="M362 645C518.297 645 645 518.297 645 362C645 205.703 518.297 79 362 79C205.703 79 79 205.703 79 362C79 518.297 205.703 645 362 645Z" fill="#DDE1EC"/>
<path opacity="0.3" d="M370 129H354V379H370V129Z" fill="#535461"/>
<g opacity="0.1">
<path opacity="0.1" d="M604.996 356H378.996V376H604.996V356Z" fill="black"/>
<path opacity="0.1" d="M219.438 281.177L210.16 298.895L352.362 373.362L361.64 355.644L219.438 281.177Z" fill="black"/>
<path opacity="0.1" d="M361.996 396C378.565 396 391.996 382.569 391.996 366C391.996 349.431 378.565 336 361.996 336C345.428 336 331.996 349.431 331.996 366C331.996 382.569 345.428 396 361.996 396Z" fill="black"/>
</g>
<path d="M605 352H379V372H605V352Z" fill="#535461"/>
<path d="M361.709 351.663L219.508 277.195L210.23 294.913L352.431 369.38L361.709 351.663Z" fill="#535461"/>
<path d="M362 392C378.569 392 392 378.569 392 362C392 345.431 378.569 332 362 332C345.431 332 332 345.431 332 362C332 378.569 345.431 392 362 392Z" fill="#535461"/>
<g opacity="0.1">
<path opacity="0.1" d="M100.977 396C100.977 239.7 227.677 113 383.977 113C427.846 112.961 471.122 123.138 510.377 142.723C549.632 162.309 583.787 190.766 610.137 225.84C561.977 138.32 468.977 79 361.977 79C205.677 79 78.9769 205.7 78.9769 362C78.8849 423.402 98.8545 483.152 135.847 532.16C112.906 490.449 100.909 443.604 100.977 396V396Z" fill="black"/>
</g>
<defs>
<linearGradient id="paint0_linear" x1="362" y1="724" x2="362" y2="0" gradientUnits="userSpaceOnUse">
<stop stop-color="#808080" stop-opacity="0.25"/>
<stop offset="0.54" stop-color="#808080" stop-opacity="0.12"/>
<stop offset="1" stop-color="#808080" stop-opacity="0.1"/>
</linearGradient>
</defs>
</svg>
