<svg width="400" height="100" viewBox="0 0 400 100" fill="none" xmlns="http://www.w3.org/2000/svg">
<rect width="400" height="100" rx="20" fill="#323232"/>
<path d="M45.914 76.5206C37.2044 76.4704 30 58.6911 30 49.6365C30 34.8459 41.0955 31.6079 45.3716 31.6079C47.2987 31.6079 49.3564 32.3646 51.1713 33.0343C52.4405 33.5014 53.7531 33.9837 54.4831 33.9837C54.92 33.9837 55.9498 33.5734 56.8589 33.2135C58.7977 32.4417 61.2103 31.4824 64.0198 31.4824C64.0248 31.4824 64.0315 31.4824 64.0364 31.4824C66.1343 31.4824 72.495 31.9428 76.319 37.6855L77.2148 39.0316L75.9256 40.0044C74.0839 41.3941 70.7236 43.9289 70.7236 48.9502C70.7236 54.8972 74.5292 57.1843 76.3575 58.2843C77.1646 58.7699 78 59.2705 78 60.3655C78 61.0804 72.294 76.4319 64.008 76.4319C61.9805 76.4319 60.5473 75.8224 59.2831 75.285C58.004 74.7408 56.9006 74.2721 55.0773 74.2721C54.1531 74.2721 52.9844 74.709 51.7471 75.1729C50.0563 75.8039 48.1425 76.5206 45.971 76.5206H45.914Z" fill="white"/>
<path d="M64.8975 18C65.1133 25.7809 59.5487 31.179 53.9907 30.8405C53.0748 24.631 59.5481 18 64.8975 18Z" fill="white"/>
<path d="M123.336 36V17.5156H128.503C130.018 17.5156 131.376 17.8626 132.578 18.5566C133.78 19.2422 134.715 20.2282 135.384 21.5146C136.061 22.8011 136.399 24.2653 136.399 25.9072V27.6084C136.399 29.2588 136.065 30.723 135.396 32.001C134.728 33.279 133.784 34.265 132.565 34.959C131.355 35.653 129.963 36 128.389 36H123.336ZM124.897 18.8486V34.6797H128.401C130.348 34.6797 131.91 34.0365 133.086 32.75C134.262 31.4551 134.851 29.7074 134.851 27.5068V25.8818C134.851 23.7575 134.271 22.0563 133.111 20.7783C131.952 19.5003 130.424 18.8571 128.528 18.8486H124.897ZM139.18 28.9287C139.18 27.6084 139.434 26.4193 139.941 25.3613C140.458 24.3034 141.181 23.4824 142.112 22.8984C143.052 22.306 144.114 22.0098 145.299 22.0098C147.127 22.0098 148.608 22.653 149.742 23.9395C150.876 25.2174 151.443 26.9144 151.443 29.0303V29.3477C151.443 30.6764 151.185 31.874 150.669 32.9404C150.161 33.9984 149.442 34.8151 148.511 35.3906C147.58 35.9661 146.518 36.2539 145.324 36.2539C143.505 36.2539 142.023 35.6149 140.881 34.3369C139.747 33.0505 139.18 31.3493 139.18 29.2334V28.9287ZM140.703 29.3477C140.703 30.9896 141.126 32.3395 141.973 33.3975C142.827 34.4469 143.945 34.9717 145.324 34.9717C146.695 34.9717 147.804 34.4469 148.65 33.3975C149.505 32.3395 149.933 30.9473 149.933 29.2207V28.9287C149.933 27.8792 149.738 26.9186 149.349 26.0469C148.959 25.1751 148.413 24.5023 147.711 24.0283C147.008 23.5459 146.204 23.3047 145.299 23.3047C143.945 23.3047 142.84 23.8379 141.985 24.9043C141.131 25.9622 140.703 27.3503 140.703 29.0684V29.3477ZM157.88 32.8389L158.108 34.0195L158.413 32.7754L161.714 22.2637H163.009L166.271 32.6865L166.627 34.1338L166.919 32.8008L169.737 22.2637H171.312L167.312 36H166.018L162.488 25.1074L162.323 24.3584L162.158 25.1201L158.692 36H157.397L153.411 22.2637H154.973L157.88 32.8389ZM175.641 22.2637L175.691 24.6123C176.208 23.766 176.851 23.1227 177.621 22.6826C178.391 22.234 179.242 22.0098 180.173 22.0098C181.646 22.0098 182.742 22.4245 183.461 23.2539C184.18 24.0833 184.544 25.3275 184.553 26.9863V36H183.042V26.9736C183.034 25.7464 182.771 24.8324 182.255 24.2314C181.747 23.6305 180.93 23.3301 179.805 23.3301C178.865 23.3301 178.032 23.6263 177.304 24.2188C176.584 24.8027 176.051 25.5941 175.704 26.5928V36H174.193V22.2637H175.641ZM190.189 36H188.666V16.5H190.189V36ZM193.49 28.9287C193.49 27.6084 193.744 26.4193 194.252 25.3613C194.768 24.3034 195.492 23.4824 196.423 22.8984C197.362 22.306 198.424 22.0098 199.609 22.0098C201.438 22.0098 202.919 22.653 204.053 23.9395C205.187 25.2174 205.754 26.9144 205.754 29.0303V29.3477C205.754 30.6764 205.496 31.874 204.979 32.9404C204.472 33.9984 203.752 34.8151 202.821 35.3906C201.89 35.9661 200.828 36.2539 199.635 36.2539C197.815 36.2539 196.334 35.6149 195.191 34.3369C194.057 33.0505 193.49 31.3493 193.49 29.2334V28.9287ZM195.014 29.3477C195.014 30.9896 195.437 32.3395 196.283 33.3975C197.138 34.4469 198.255 34.9717 199.635 34.9717C201.006 34.9717 202.115 34.4469 202.961 33.3975C203.816 32.3395 204.243 30.9473 204.243 29.2207V28.9287C204.243 27.8792 204.049 26.9186 203.659 26.0469C203.27 25.1751 202.724 24.5023 202.021 24.0283C201.319 23.5459 200.515 23.3047 199.609 23.3047C198.255 23.3047 197.151 23.8379 196.296 24.9043C195.441 25.9622 195.014 27.3503 195.014 29.0684V29.3477ZM217.573 36C217.421 35.5684 217.324 34.9294 217.281 34.083C216.748 34.777 216.067 35.3145 215.237 35.6953C214.416 36.0677 213.545 36.2539 212.622 36.2539C211.302 36.2539 210.231 35.8857 209.41 35.1494C208.598 34.4131 208.191 33.4821 208.191 32.3564C208.191 31.0192 208.746 29.9613 209.854 29.1826C210.972 28.404 212.525 28.0146 214.514 28.0146H217.269V26.4531C217.269 25.4714 216.964 24.7012 216.354 24.1426C215.754 23.5755 214.873 23.292 213.714 23.292C212.656 23.292 211.78 23.5628 211.086 24.1045C210.392 24.6462 210.045 25.2979 210.045 26.0596L208.521 26.0469C208.521 24.9551 209.029 24.0114 210.045 23.2158C211.061 22.4118 212.309 22.0098 213.79 22.0098C215.322 22.0098 216.528 22.3949 217.408 23.165C218.297 23.9268 218.754 24.9932 218.779 26.3643V32.8643C218.779 34.193 218.919 35.1875 219.198 35.8477V36H217.573ZM212.8 34.9082C213.815 34.9082 214.721 34.6628 215.517 34.1719C216.321 33.681 216.905 33.0251 217.269 32.2041V29.1826H214.552C213.037 29.1995 211.852 29.4788 210.997 30.0205C210.142 30.5537 209.715 31.29 209.715 32.2295C209.715 32.9997 209.998 33.6387 210.565 34.1465C211.141 34.6543 211.886 34.9082 212.8 34.9082ZM222.232 29.0049C222.232 26.8721 222.706 25.1751 223.654 23.9141C224.611 22.6445 225.906 22.0098 227.539 22.0098C229.393 22.0098 230.806 22.7419 231.779 24.2061V16.5H233.29V36H231.868L231.805 34.1719C230.831 35.5599 229.401 36.2539 227.514 36.2539C225.931 36.2539 224.653 35.6191 223.68 34.3496C222.715 33.0716 222.232 31.3493 222.232 29.1826V29.0049ZM223.769 29.2715C223.769 31.0234 224.12 32.4072 224.822 33.4229C225.525 34.43 226.515 34.9336 227.793 34.9336C229.663 34.9336 230.992 34.1084 231.779 32.458V26.0088C230.992 24.223 229.672 23.3301 227.818 23.3301C226.54 23.3301 225.546 23.8337 224.835 24.8408C224.124 25.8395 223.769 27.3164 223.769 29.2715ZM242.773 28.9287C242.773 27.6084 243.027 26.4193 243.535 25.3613C244.051 24.3034 244.775 23.4824 245.706 22.8984C246.646 22.306 247.708 22.0098 248.893 22.0098C250.721 22.0098 252.202 22.653 253.336 23.9395C254.47 25.2174 255.037 26.9144 255.037 29.0303V29.3477C255.037 30.6764 254.779 31.874 254.263 32.9404C253.755 33.9984 253.035 34.8151 252.104 35.3906C251.174 35.9661 250.111 36.2539 248.918 36.2539C247.098 36.2539 245.617 35.6149 244.475 34.3369C243.34 33.0505 242.773 31.3493 242.773 29.2334V28.9287ZM244.297 29.3477C244.297 30.9896 244.72 32.3395 245.566 33.3975C246.421 34.4469 247.538 34.9717 248.918 34.9717C250.289 34.9717 251.398 34.4469 252.244 33.3975C253.099 32.3395 253.526 30.9473 253.526 29.2207V28.9287C253.526 27.8792 253.332 26.9186 252.942 26.0469C252.553 25.1751 252.007 24.5023 251.305 24.0283C250.602 23.5459 249.798 23.3047 248.893 23.3047C247.538 23.3047 246.434 23.8379 245.579 24.9043C244.724 25.9622 244.297 27.3503 244.297 29.0684V29.3477ZM259.633 22.2637L259.684 24.6123C260.2 23.766 260.843 23.1227 261.613 22.6826C262.383 22.234 263.234 22.0098 264.165 22.0098C265.638 22.0098 266.734 22.4245 267.453 23.2539C268.173 24.0833 268.536 25.3275 268.545 26.9863V36H267.034V26.9736C267.026 25.7464 266.763 24.8324 266.247 24.2314C265.739 23.6305 264.923 23.3301 263.797 23.3301C262.857 23.3301 262.024 23.6263 261.296 24.2188C260.576 24.8027 260.043 25.5941 259.696 26.5928V36H258.186V22.2637H259.633ZM281.164 18.7471V22.2637H284.008V23.5078H281.164V32.6611C281.164 33.4229 281.299 33.9899 281.57 34.3623C281.85 34.7347 282.311 34.9209 282.954 34.9209C283.208 34.9209 283.618 34.8786 284.186 34.7939L284.249 36.0381C283.851 36.182 283.31 36.2539 282.624 36.2539C281.583 36.2539 280.826 35.9535 280.352 35.3525C279.878 34.7432 279.641 33.8503 279.641 32.6738V23.5078H277.114V22.2637H279.641V18.7471H281.164ZM288.667 24.5869C289.166 23.766 289.805 23.1312 290.584 22.6826C291.363 22.234 292.213 22.0098 293.136 22.0098C294.608 22.0098 295.704 22.4245 296.424 23.2539C297.143 24.0833 297.507 25.3275 297.516 26.9863V36H296.005V26.9736C295.996 25.7464 295.734 24.8324 295.218 24.2314C294.71 23.6305 293.893 23.3301 292.768 23.3301C291.828 23.3301 290.994 23.6263 290.267 24.2188C289.547 24.8027 289.014 25.5941 288.667 26.5928V36H287.156V16.5H288.667V24.5869ZM306.745 36.2539C305.577 36.2539 304.519 35.9661 303.571 35.3906C302.632 34.8151 301.9 34.0153 301.375 32.9912C300.85 31.9587 300.588 30.8034 300.588 29.5254V28.9795C300.588 27.6592 300.842 26.4701 301.35 25.4121C301.866 24.3542 302.581 23.5247 303.495 22.9238C304.409 22.3145 305.399 22.0098 306.466 22.0098C308.133 22.0098 309.453 22.5811 310.427 23.7236C311.409 24.8577 311.899 26.4108 311.899 28.3828V29.2334H302.099V29.5254C302.099 31.0827 302.543 32.3818 303.432 33.4229C304.329 34.4554 305.454 34.9717 306.809 34.9717C307.621 34.9717 308.336 34.8236 308.954 34.5273C309.58 34.2311 310.147 33.7572 310.655 33.1055L311.607 33.8291C310.49 35.4456 308.869 36.2539 306.745 36.2539ZM306.466 23.3047C305.323 23.3047 304.358 23.7236 303.571 24.5615C302.793 25.3994 302.319 26.5251 302.149 27.9385H310.389V27.7734C310.346 26.4531 309.97 25.3783 309.259 24.5488C308.548 23.7194 307.617 23.3047 306.466 23.3047Z" fill="#F5F5F5"/>
<path d="M139.809 68.3789H128.793L126.488 75H121.352L132.094 46.5625H136.527L147.289 75H142.133L139.809 68.3789ZM130.18 64.3945H138.422L134.301 52.5977L130.18 64.3945ZM167.641 64.6484C167.641 67.9167 166.898 70.5273 165.414 72.4805C163.93 74.4206 161.938 75.3906 159.438 75.3906C157.12 75.3906 155.264 74.6289 153.871 73.1055V83.125H149.125V53.8672H153.5L153.695 56.0156C155.089 54.3229 156.983 53.4766 159.379 53.4766C161.957 53.4766 163.975 54.4401 165.434 56.3672C166.905 58.2812 167.641 60.944 167.641 64.3555V64.6484ZM162.914 64.2383C162.914 62.1289 162.491 60.4557 161.645 59.2188C160.811 57.9818 159.613 57.3633 158.051 57.3633C156.111 57.3633 154.717 58.1641 153.871 59.7656V69.1406C154.73 70.7812 156.137 71.6016 158.09 71.6016C159.6 71.6016 160.779 70.9961 161.625 69.7852C162.484 68.5612 162.914 66.7122 162.914 64.2383ZM190.18 64.6484C190.18 67.9167 189.438 70.5273 187.953 72.4805C186.469 74.4206 184.477 75.3906 181.977 75.3906C179.659 75.3906 177.803 74.6289 176.41 73.1055V83.125H171.664V53.8672H176.039L176.234 56.0156C177.628 54.3229 179.522 53.4766 181.918 53.4766C184.496 53.4766 186.514 54.4401 187.973 56.3672C189.444 58.2812 190.18 60.944 190.18 64.3555V64.6484ZM185.453 64.2383C185.453 62.1289 185.03 60.4557 184.184 59.2188C183.35 57.9818 182.152 57.3633 180.59 57.3633C178.65 57.3633 177.257 58.1641 176.41 59.7656V69.1406C177.27 70.7812 178.676 71.6016 180.629 71.6016C182.139 71.6016 183.318 70.9961 184.164 69.7852C185.023 68.5612 185.453 66.7122 185.453 64.2383ZM199.262 75H194.516V45H199.262V75ZM213.754 75.3906C210.746 75.3906 208.305 74.4466 206.43 72.5586C204.568 70.6576 203.637 68.1315 203.637 64.9805V64.3945C203.637 62.2852 204.04 60.4036 204.848 58.75C205.668 57.0833 206.814 55.7878 208.285 54.8633C209.757 53.9388 211.397 53.4766 213.207 53.4766C216.085 53.4766 218.305 54.3945 219.867 56.2305C221.443 58.0664 222.23 60.6641 222.23 64.0234V65.9375H208.422C208.565 67.6823 209.145 69.0625 210.16 70.0781C211.189 71.0938 212.478 71.6016 214.027 71.6016C216.202 71.6016 217.973 70.7227 219.34 68.9648L221.898 71.4062C221.052 72.6693 219.919 73.6523 218.5 74.3555C217.094 75.0456 215.512 75.3906 213.754 75.3906ZM213.188 57.2852C211.885 57.2852 210.831 57.7409 210.023 58.6523C209.229 59.5638 208.721 60.8333 208.5 62.4609H217.543V62.1094C217.439 60.5208 217.016 59.3229 216.273 58.5156C215.531 57.6953 214.503 57.2852 213.188 57.2852ZM251.215 67.6758C251.215 66.4258 250.772 65.4622 249.887 64.7852C249.014 64.1081 247.432 63.4245 245.141 62.7344C242.849 62.0443 241.026 61.276 239.672 60.4297C237.081 58.8021 235.785 56.6797 235.785 54.0625C235.785 51.7708 236.716 49.8828 238.578 48.3984C240.453 46.9141 242.882 46.1719 245.863 46.1719C247.842 46.1719 249.607 46.5365 251.156 47.2656C252.706 47.9948 253.923 49.0365 254.809 50.3906C255.694 51.7318 256.137 53.2227 256.137 54.8633H251.215C251.215 53.3789 250.746 52.2201 249.809 51.3867C248.884 50.5404 247.556 50.1172 245.824 50.1172C244.21 50.1172 242.953 50.4622 242.055 51.1523C241.169 51.8424 240.727 52.806 240.727 54.043C240.727 55.0846 241.208 55.957 242.172 56.6602C243.135 57.3503 244.724 58.0273 246.938 58.6914C249.151 59.3424 250.928 60.0911 252.27 60.9375C253.611 61.7708 254.594 62.7344 255.219 63.8281C255.844 64.9089 256.156 66.1784 256.156 67.6367C256.156 70.0065 255.245 71.8945 253.422 73.3008C251.612 74.694 249.151 75.3906 246.039 75.3906C243.982 75.3906 242.087 75.013 240.355 74.2578C238.637 73.4896 237.296 72.4349 236.332 71.0938C235.382 69.7526 234.906 68.1901 234.906 66.4062H239.848C239.848 68.0208 240.382 69.2708 241.449 70.1562C242.517 71.0417 244.047 71.4844 246.039 71.4844C247.758 71.4844 249.047 71.1393 249.906 70.4492C250.779 69.7461 251.215 68.8216 251.215 67.6758ZM265.98 48.7305V53.8672H269.711V57.3828H265.98V69.1797C265.98 69.987 266.137 70.5729 266.449 70.9375C266.775 71.2891 267.348 71.4648 268.168 71.4648C268.715 71.4648 269.268 71.3997 269.828 71.2695V74.9414C268.747 75.2409 267.706 75.3906 266.703 75.3906C263.057 75.3906 261.234 73.3789 261.234 69.3555V57.3828H257.758V53.8672H261.234V48.7305H265.98ZM271.879 64.2383C271.879 62.168 272.289 60.306 273.109 58.6523C273.93 56.9857 275.082 55.7096 276.566 54.8242C278.051 53.9258 279.757 53.4766 281.684 53.4766C284.535 53.4766 286.846 54.3945 288.617 56.2305C290.401 58.0664 291.365 60.5013 291.508 63.5352L291.527 64.6484C291.527 66.7318 291.124 68.5938 290.316 70.2344C289.522 71.875 288.376 73.1445 286.879 74.043C285.395 74.9414 283.676 75.3906 281.723 75.3906C278.741 75.3906 276.352 74.401 274.555 72.4219C272.771 70.4297 271.879 67.7799 271.879 64.4727V64.2383ZM276.625 64.6484C276.625 66.8229 277.074 68.5286 277.973 69.7656C278.871 70.9896 280.121 71.6016 281.723 71.6016C283.324 71.6016 284.568 70.9766 285.453 69.7266C286.352 68.4766 286.801 66.6471 286.801 64.2383C286.801 62.1029 286.339 60.4102 285.414 59.1602C284.503 57.9102 283.259 57.2852 281.684 57.2852C280.134 57.2852 278.904 57.9036 277.992 59.1406C277.081 60.3646 276.625 62.2005 276.625 64.6484ZM306.605 58.2031C305.98 58.099 305.336 58.0469 304.672 58.0469C302.497 58.0469 301.033 58.8802 300.277 60.5469V75H295.531V53.8672H300.062L300.18 56.2305C301.326 54.3945 302.914 53.4766 304.945 53.4766C305.622 53.4766 306.182 53.5677 306.625 53.75L306.605 58.2031ZM318.52 75.3906C315.512 75.3906 313.07 74.4466 311.195 72.5586C309.333 70.6576 308.402 68.1315 308.402 64.9805V64.3945C308.402 62.2852 308.806 60.4036 309.613 58.75C310.434 57.0833 311.579 55.7878 313.051 54.8633C314.522 53.9388 316.163 53.4766 317.973 53.4766C320.85 53.4766 323.07 54.3945 324.633 56.2305C326.208 58.0664 326.996 60.6641 326.996 64.0234V65.9375H313.188C313.331 67.6823 313.91 69.0625 314.926 70.0781C315.954 71.0938 317.243 71.6016 318.793 71.6016C320.967 71.6016 322.738 70.7227 324.105 68.9648L326.664 71.4062C325.818 72.6693 324.685 73.6523 323.266 74.3555C321.859 75.0456 320.277 75.3906 318.52 75.3906ZM317.953 57.2852C316.651 57.2852 315.596 57.7409 314.789 58.6523C313.995 59.5638 313.487 60.8333 313.266 62.4609H322.309V62.1094C322.204 60.5208 321.781 59.3229 321.039 58.5156C320.297 57.6953 319.268 57.2852 317.953 57.2852Z" fill="#F5F5F5"/>
</svg>
