<svg width="400" height="277" viewBox="0 0 400 277" fill="none" xmlns="http://www.w3.org/2000/svg">
<g clip-path="url(#clip0)">
<path opacity="0.1" d="M226.252 37.5986C200.612 37.6329 175.933 30.3647 152.328 22.2904C128.722 14.2161 105.299 5.17452 80.1358 1.34317C63.9529 -1.11959 45.5508 -0.893206 32.9008 8.04889C20.7242 16.6514 17.1981 30.8895 15.4969 44.0436C14.2174 53.9393 13.6275 64.3254 18.4192 73.3773C21.7464 79.6611 27.4402 84.8404 31.4534 90.8293C45.4616 111.663 37.0374 138.277 23.4237 159.595C17.0404 169.597 9.5629 179.183 4.73684 189.758C-0.089212 200.333 -2.06834 212.324 2.85376 222.762C7.73126 233.107 18.7485 240.615 30.5718 245.743C54.5821 256.177 82.5368 258.414 109.74 259.275C169.958 261.185 230.292 257.289 290.465 253.392C312.733 251.952 335.1 250.501 356.908 246.326C369.016 244.011 381.485 240.574 390.07 233.042C400.967 223.479 403.197 207.865 395.267 196.642C381.968 177.818 346.903 174.268 337.368 153.901C332.109 142.688 336.644 129.829 343.322 119.021C357.646 95.8303 382.301 75.058 382.716 49.1201C383.001 31.3079 370.179 13.9314 351.029 6.18981C330.957 -1.91878 303.589 0.166675 289.525 15.2794C275.064 30.8483 248.89 37.5746 226.252 37.5986Z" fill="#1E88E5"/>
<path d="M340.44 221.361C340.44 221.361 336.225 218.579 332.047 220.558C332.047 220.558 333.333 223.035 338.622 222.802L340.44 221.361Z" fill="#1E88E5"/>
<path d="M340.974 221.508C340.974 221.508 342.257 226.392 339.039 229.716C339.039 229.716 337.105 227.702 339.039 222.77L340.974 221.508Z" fill="#1E88E5"/>
<path d="M346.217 216.821C346.217 216.821 345.905 212.667 336.523 214.046C336.523 214.046 336.479 216.725 339.772 217.994C343.065 219.263 344.574 218.193 346.217 216.821Z" fill="#1E88E5"/>
<path d="M346.809 216.793C346.809 216.793 350.774 218.066 347.238 226.864C347.238 226.864 344.621 226.28 344.151 222.778C343.681 219.276 345.074 218.069 346.809 216.793Z" fill="#1E88E5"/>
<path d="M352.102 210.898C352.102 210.898 352.641 204.061 343.054 204.761C343.054 204.761 342.368 210.935 350.411 212.541L352.102 210.898Z" fill="#1E88E5"/>
<path d="M358.436 203.182C358.436 203.182 357.123 195.434 347.539 197.742C347.539 197.742 347.505 204.441 356.872 205.027L358.436 203.182Z" fill="#1E88E5"/>
<path d="M363.071 195.203C363.071 195.203 360.869 187.657 351.375 189.914C351.375 189.914 353.635 196.702 362.44 196.595L363.071 195.203Z" fill="#1E88E5"/>
<path d="M367.468 187.41C367.468 187.41 365.317 179.579 356.148 181.922C356.148 181.922 359.208 189.362 366.86 188.734L367.468 187.41Z" fill="#1E88E5"/>
<path d="M370.299 180.009C370.299 180.009 368.645 170.433 360.098 172.552C360.098 172.552 362.581 181.265 369.671 181.405L370.299 180.009Z" fill="#1E88E5"/>
<path d="M372.957 171.066C372.957 171.066 370.971 161.414 362.324 164.206C362.324 164.206 365.713 173.33 372.343 172.387L372.957 171.066Z" fill="#1E88E5"/>
<path d="M374.591 162.744C374.591 162.744 371.439 153.088 364.754 153.349C364.754 153.349 367.975 163.546 374.032 164.668L374.591 162.744Z" fill="#1E88E5"/>
<path d="M375.647 154.623C375.647 154.623 372.217 143.002 366.777 143.897C366.777 143.897 369.151 152.781 375.455 156.434L375.647 154.623Z" fill="#1E88E5"/>
<path d="M376.243 144.934C376.243 144.934 373.026 135.251 367.668 134.863C367.668 134.863 369.856 144.392 376.137 147.451L376.243 144.934Z" fill="#1E88E5"/>
<path d="M376.89 135.889C376.89 135.889 372.88 126.196 369.344 125.977C369.344 125.977 371.086 135.522 376.547 137.481L376.89 135.889Z" fill="#1E88E5"/>
<path d="M377.334 127.48C377.334 127.48 374.867 116.953 371.324 116.078C371.324 116.078 371.808 124.691 376.977 128.268L377.334 127.48Z" fill="#1E88E5"/>
<path d="M378.671 116.462C378.671 116.462 376.078 108.068 373.207 106.789C373.207 106.789 373.773 116.685 378.009 118.513L378.671 116.462Z" fill="#1E88E5"/>
<path d="M379.779 109.262L380.301 94.4648C380.301 94.4648 374.933 105.619 379.392 111.859L379.779 109.262Z" fill="#1E88E5"/>
<path d="M383.924 94.5411C383.924 94.5411 387.79 83.7365 388.726 83.1328C388.726 83.1328 381.146 90.1438 381.887 99.1614L383.924 94.5411Z" fill="#1E88E5"/>
<path d="M352.362 210.846C352.362 210.846 359.161 209.957 358.958 219.565C358.958 219.565 352.815 220.567 350.809 212.619L352.362 210.846Z" fill="#1E88E5"/>
<path d="M358.759 202.918C358.759 202.918 366.614 202.894 365.962 212.728C365.962 212.728 359.366 213.908 357.191 204.777L358.759 202.918Z" fill="#1E88E5"/>
<path d="M363.147 195.837C363.147 195.837 370.278 192.492 374.84 201.126C374.84 201.126 368.254 203.911 362.516 197.233L363.147 195.837Z" fill="#1E88E5"/>
<path d="M367.623 187.483C367.623 187.483 374.926 183.926 379.213 192.357C379.213 192.357 371.605 194.978 367.02 188.817L367.623 187.483Z" fill="#1E88E5"/>
<path d="M370.205 180.219C370.205 180.219 377.233 173.506 382.841 180.294C382.841 180.294 375.662 185.82 369.883 181.714L370.205 180.219Z" fill="#1E88E5"/>
<path d="M372.559 170.836C372.559 170.836 379.628 163.976 385.191 171.152C385.191 171.152 377.258 176.788 372.305 172.277L372.559 170.836Z" fill="#1E88E5"/>
<path d="M373.879 162.471C373.879 162.471 379.326 153.896 385.74 155.81C385.74 155.81 380.087 164.889 373.941 164.484L373.879 162.471Z" fill="#1E88E5"/>
<path d="M375.484 154.567C375.484 154.567 380.972 143.77 386.166 145.649C386.166 145.649 382.207 153.95 375.344 156.389L375.484 154.567Z" fill="#1E88E5"/>
<path d="M375.865 144.369C375.865 144.369 381.508 135.869 386.793 136.908C386.793 136.908 382.18 145.528 375.316 146.828L375.865 144.369Z" fill="#1E88E5"/>
<path d="M376.305 135.702C376.305 135.702 380.678 126.163 384.231 126.098C384.231 126.098 382.132 135.568 376.6 137.321L376.305 135.702Z" fill="#1E88E5"/>
<path d="M377.164 127.273C377.164 127.273 382.024 117.614 385.677 117.594C385.677 117.594 383.191 125.853 377.325 128.121L377.164 127.273Z" fill="#1E88E5"/>
<path d="M377.895 117.065C377.895 117.065 381.53 109.073 384.542 108.168C384.542 108.168 382.724 117.909 378.296 119.185L377.895 117.065Z" fill="#1E88E5"/>
<path d="M380.214 108.969L388.34 96.5898C388.34 96.5898 386.258 108.801 379.027 111.339L380.214 108.969Z" fill="#1E88E5"/>
<path d="M385.79 95.5427C385.79 95.5427 395.233 89.0257 395.576 87.9727C395.576 87.9727 390.774 97.1 381.855 98.7121L385.79 95.5427Z" fill="#1E88E5"/>
<path d="M386.354 92.6089C386.354 92.6089 397.197 82.185 399.965 82.1953C399.965 82.1953 391.023 82.6035 386.094 92.0532L386.354 92.6089Z" fill="#1E88E5"/>
<path d="M378 118.614L378.394 118.665C380.432 102.719 383.402 93.2832 386.757 92.1273L386.627 91.75C383.07 92.9848 380.079 102.277 378 118.614Z" fill="#444053"/>
<path d="M375.004 156.748L375.601 156.796C375.728 155.308 375.824 153.785 375.889 152.265C376.458 139.066 377.34 126.945 378.499 117.858L378.156 117.43C376.993 126.536 375.861 139.022 375.292 152.241C375.227 153.75 375.131 155.266 375.004 156.748Z" fill="#444053"/>
<path d="M329.315 228.967C329.418 228.923 339.924 224.231 350.828 213.042C357.216 206.489 362.525 198.963 366.554 190.747C371.597 180.481 374.67 167.865 375.699 155.609L375.078 155.901C372.763 183.41 360.24 202.206 350.282 212.445C339.485 223.534 329.095 228.179 328.992 228.223L329.315 228.967Z" fill="#444053"/>
<path d="M356.517 29.2344H26.9322C26.1535 29.2344 25.4067 29.5437 24.8561 30.0943C24.3054 30.645 23.9961 31.3918 23.9961 32.1705V40.725H359.453V32.1705C359.453 31.3918 359.144 30.645 358.593 30.0943C358.043 29.5437 357.296 29.2344 356.517 29.2344V29.2344Z" fill="#3F3D56"/>
<path d="M23.9961 40.7227V233.23C23.9961 234.8 24.6198 236.306 25.7301 237.416C26.8403 238.526 28.3462 239.15 29.9163 239.15H353.533C355.103 239.15 356.609 238.526 357.719 237.416C358.829 236.306 359.453 234.8 359.453 233.23V40.7227H23.9961Z" fill="white"/>
<path opacity="0.8" d="M29.3095 36.2636C30.0673 36.2636 30.6815 35.6493 30.6815 34.8915C30.6815 34.1338 30.0673 33.5195 29.3095 33.5195C28.5518 33.5195 27.9375 34.1338 27.9375 34.8915C27.9375 35.6493 28.5518 36.2636 29.3095 36.2636Z" fill="#FA5959"/>
<path opacity="0.8" d="M33.0829 36.2636C33.8407 36.2636 34.455 35.6493 34.455 34.8915C34.455 34.1338 33.8407 33.5195 33.0829 33.5195C32.3252 33.5195 31.7109 34.1338 31.7109 34.8915C31.7109 35.6493 32.3252 36.2636 33.0829 36.2636Z" fill="#FED253"/>
<path opacity="0.8" d="M36.8564 36.2636C37.6141 36.2636 38.2284 35.6493 38.2284 34.8915C38.2284 34.1338 37.6141 33.5195 36.8564 33.5195C36.0986 33.5195 35.4844 34.1338 35.4844 34.8915C35.4844 35.6493 36.0986 36.2636 36.8564 36.2636Z" fill="#8CCF4D"/>
<path opacity="0.05" d="M324.78 72.8242H55.1797V191.373H324.78V72.8242Z" fill="black"/>
<path d="M322.719 73.7227H57.2344V189.658H322.719V73.7227Z" fill="#3F3D56"/>
<path d="M129.61 103.559C124.387 103.559 119.28 105.108 114.937 108.01C110.594 110.912 107.209 115.037 105.21 119.863C103.211 124.689 102.688 129.999 103.707 135.122C104.726 140.246 107.241 144.952 110.935 148.645C114.629 152.339 119.335 154.855 124.458 155.874C129.581 156.893 134.892 156.37 139.718 154.371C144.544 152.372 148.669 148.986 151.571 144.643C154.473 140.3 156.022 135.193 156.022 129.97C156.022 126.501 155.339 123.067 154.011 119.863C152.684 116.658 150.739 113.747 148.286 111.294C145.834 108.842 142.922 106.896 139.718 105.569C136.513 104.242 133.079 103.559 129.61 103.559V103.559ZM134.347 130.604V143.11H125.011V130.604C123.719 129.626 122.767 128.267 122.289 126.719C121.811 125.171 121.831 123.511 122.347 121.975C122.863 120.439 123.848 119.104 125.163 118.158C126.479 117.212 128.059 116.703 129.679 116.703C131.3 116.703 132.879 117.212 134.195 118.158C135.51 119.104 136.496 120.439 137.011 121.975C137.527 123.511 137.548 125.171 137.07 126.719C136.592 128.267 135.639 129.626 134.347 130.604V130.604Z" fill="#1E88E5"/>
<path opacity="0.05" d="M129.61 103.559C124.387 103.559 119.28 105.108 114.937 108.01C110.594 110.912 107.209 115.037 105.21 119.863C103.211 124.689 102.688 129.999 103.707 135.122C104.726 140.246 107.241 144.952 110.935 148.645C114.629 152.339 119.335 154.855 124.458 155.874C129.581 156.893 134.892 156.37 139.718 154.371C144.544 152.372 148.669 148.986 151.571 144.643C154.473 140.3 156.022 135.193 156.022 129.97C156.022 126.501 155.339 123.067 154.011 119.863C152.684 116.658 150.739 113.747 148.286 111.294C145.834 108.842 142.922 106.896 139.718 105.569C136.513 104.242 133.079 103.559 129.61 103.559V103.559ZM134.347 130.604V143.11H125.011V130.604C123.719 129.626 122.767 128.267 122.289 126.719C121.811 125.171 121.831 123.511 122.347 121.975C122.863 120.439 123.848 119.104 125.163 118.158C126.479 117.212 128.059 116.703 129.679 116.703C131.3 116.703 132.879 117.212 134.195 118.158C135.51 119.104 136.496 120.439 137.011 121.975C137.527 123.511 137.548 125.171 137.07 126.719C136.592 128.267 135.639 129.626 134.347 130.604V130.604Z" fill="black"/>
<path d="M129.61 96.0117C122.894 96.0117 116.328 98.0033 110.744 101.735C105.16 105.466 100.807 110.769 98.2372 116.974C95.6671 123.179 94.9946 130.007 96.3048 136.594C97.6151 143.181 100.849 149.231 105.598 153.98C110.347 158.729 116.398 161.964 122.985 163.274C129.572 164.584 136.4 163.912 142.605 161.341C148.809 158.771 154.113 154.419 157.844 148.835C161.575 143.25 163.567 136.685 163.567 129.969C163.567 120.963 159.989 112.326 153.621 105.958C147.253 99.5894 138.616 96.0117 129.61 96.0117V96.0117ZM135.698 130.785V146.862H123.693V130.785C122.031 129.528 120.806 127.78 120.191 125.789C119.576 123.797 119.602 121.663 120.266 119.688C120.929 117.712 122.196 115.995 123.888 114.778C125.58 113.561 127.611 112.906 129.695 112.906C131.779 112.906 133.811 113.561 135.503 114.778C137.195 115.995 138.462 117.712 139.125 119.688C139.789 121.663 139.815 123.797 139.2 125.789C138.585 127.78 137.36 129.528 135.698 130.785V130.785Z" fill="#1E88E5"/>
<path d="M287.39 125.516H177.629V137.178H287.39V125.516Z" fill="white"/>
<path d="M287.39 146.781H263.723V158.443H287.39V146.781Z" fill="#1E88E5"/>
<path d="M188.434 131.171H186.448L188.215 129.408C188.247 129.375 188.264 129.331 188.264 129.286C188.264 129.24 188.247 129.197 188.215 129.164C188.199 129.148 188.18 129.135 188.159 129.126C188.138 129.118 188.116 129.113 188.093 129.113C188.071 129.113 188.048 129.118 188.027 129.126C188.006 129.135 187.987 129.148 187.971 129.164L186.205 130.93V128.941C186.205 128.896 186.187 128.852 186.155 128.82C186.123 128.788 186.079 128.77 186.033 128.77C185.988 128.77 185.945 128.789 185.913 128.821C185.881 128.853 185.863 128.896 185.862 128.941V130.93L184.099 129.154C184.083 129.138 184.064 129.125 184.043 129.116C184.022 129.107 184 129.103 183.977 129.103C183.954 129.103 183.932 129.107 183.911 129.116C183.89 129.125 183.871 129.138 183.855 129.154C183.824 129.186 183.806 129.23 183.806 129.275C183.806 129.321 183.824 129.365 183.855 129.397L185.622 131.16H183.632C183.587 131.161 183.544 131.179 183.512 131.211C183.48 131.243 183.462 131.287 183.461 131.332C183.461 131.377 183.479 131.421 183.511 131.453C183.543 131.485 183.587 131.503 183.632 131.503H185.622L183.855 133.27C183.824 133.302 183.806 133.346 183.806 133.391C183.806 133.437 183.824 133.481 183.855 133.513C183.888 133.544 183.932 133.561 183.977 133.561C184.022 133.561 184.066 133.544 184.099 133.513L185.862 131.747V133.733C185.862 133.778 185.88 133.822 185.912 133.854C185.944 133.886 185.988 133.904 186.033 133.904C186.079 133.904 186.123 133.886 186.155 133.854C186.187 133.822 186.205 133.778 186.205 133.733V131.747L187.971 133.513C188.004 133.544 188.048 133.561 188.093 133.561C188.138 133.561 188.182 133.544 188.215 133.513C188.247 133.481 188.264 133.437 188.264 133.391C188.264 133.346 188.247 133.302 188.215 133.27L186.448 131.503H188.434C188.48 131.503 188.524 131.485 188.556 131.453C188.588 131.421 188.606 131.377 188.606 131.332C188.603 131.288 188.584 131.247 188.552 131.217C188.52 131.187 188.478 131.17 188.434 131.171Z" fill="#1E88E5"/>
<path d="M195.638 131.171H193.652L195.418 129.408C195.45 129.375 195.467 129.331 195.467 129.286C195.467 129.24 195.45 129.197 195.418 129.164C195.402 129.148 195.383 129.135 195.362 129.126C195.341 129.118 195.319 129.113 195.296 129.113C195.274 129.113 195.251 129.118 195.23 129.126C195.209 129.135 195.19 129.148 195.175 129.164L193.408 130.93V128.941C193.408 128.896 193.39 128.852 193.358 128.82C193.326 128.788 193.282 128.77 193.237 128.77C193.191 128.77 193.148 128.789 193.116 128.821C193.084 128.853 193.066 128.896 193.065 128.941V130.93L191.302 129.154C191.286 129.138 191.267 129.125 191.246 129.116C191.225 129.107 191.203 129.103 191.18 129.103C191.158 129.103 191.135 129.107 191.114 129.116C191.093 129.125 191.074 129.138 191.059 129.154C191.027 129.186 191.009 129.23 191.009 129.275C191.009 129.321 191.027 129.365 191.059 129.397L192.825 131.16H190.836C190.79 131.161 190.747 131.179 190.715 131.211C190.683 131.243 190.665 131.287 190.664 131.332C190.664 131.377 190.682 131.421 190.714 131.453C190.746 131.485 190.79 131.503 190.836 131.503H192.825L191.059 133.27C191.027 133.302 191.009 133.346 191.009 133.391C191.009 133.437 191.027 133.481 191.059 133.513C191.092 133.544 191.135 133.561 191.18 133.561C191.225 133.561 191.269 133.544 191.302 133.513L193.065 131.747V133.733C193.065 133.778 193.083 133.822 193.115 133.854C193.147 133.886 193.191 133.904 193.237 133.904C193.282 133.904 193.326 133.886 193.358 133.854C193.39 133.822 193.408 133.778 193.408 133.733V131.747L195.175 133.513C195.208 133.544 195.251 133.561 195.296 133.561C195.342 133.561 195.385 133.544 195.418 133.513C195.45 133.481 195.467 133.437 195.467 133.391C195.467 133.346 195.45 133.302 195.418 133.27L193.652 131.503H195.638C195.683 131.503 195.727 131.485 195.759 131.453C195.791 131.421 195.809 131.377 195.809 131.332C195.806 131.288 195.787 131.247 195.755 131.217C195.723 131.187 195.681 131.17 195.638 131.171Z" fill="#1E88E5"/>
<path d="M202.841 131.171H200.855L202.621 129.408C202.653 129.375 202.671 129.331 202.671 129.286C202.671 129.24 202.653 129.197 202.621 129.164C202.605 129.148 202.586 129.135 202.565 129.126C202.545 129.118 202.522 129.113 202.499 129.113C202.477 129.113 202.454 129.118 202.433 129.126C202.413 129.135 202.394 129.148 202.378 129.164L200.611 130.93V128.941C200.611 128.896 200.593 128.852 200.561 128.82C200.529 128.788 200.485 128.77 200.44 128.77C200.395 128.77 200.351 128.789 200.319 128.821C200.287 128.853 200.269 128.896 200.268 128.941V130.93L198.505 129.154C198.489 129.138 198.47 129.125 198.449 129.116C198.428 129.107 198.406 129.103 198.383 129.103C198.361 129.103 198.338 129.107 198.317 129.116C198.297 129.125 198.278 129.138 198.262 129.154C198.23 129.186 198.212 129.23 198.212 129.275C198.212 129.321 198.23 129.365 198.262 129.397L200.028 131.16H198.039C197.993 131.161 197.95 131.179 197.918 131.211C197.886 131.243 197.868 131.287 197.867 131.332C197.867 131.377 197.885 131.421 197.917 131.453C197.95 131.485 197.993 131.503 198.039 131.503H200.028L198.262 133.27C198.23 133.302 198.212 133.346 198.212 133.391C198.212 133.437 198.23 133.481 198.262 133.513C198.295 133.544 198.338 133.561 198.383 133.561C198.429 133.561 198.472 133.544 198.505 133.513L200.268 131.747V133.733C200.268 133.778 200.286 133.822 200.318 133.854C200.351 133.886 200.394 133.904 200.44 133.904C200.485 133.904 200.529 133.886 200.561 133.854C200.593 133.822 200.611 133.778 200.611 133.733V131.747L202.378 133.513C202.411 133.544 202.454 133.561 202.499 133.561C202.545 133.561 202.588 133.544 202.621 133.513C202.653 133.481 202.671 133.437 202.671 133.391C202.671 133.346 202.653 133.302 202.621 133.27L200.855 131.503H202.841C202.886 131.503 202.93 131.485 202.962 131.453C202.994 131.421 203.012 131.377 203.012 131.332C203.01 131.288 202.99 131.247 202.959 131.217C202.927 131.187 202.885 131.17 202.841 131.171Z" fill="#1E88E5"/>
<path d="M210.044 131.171H208.058L209.824 129.408C209.856 129.375 209.874 129.331 209.874 129.286C209.874 129.24 209.856 129.197 209.824 129.164C209.808 129.148 209.789 129.135 209.769 129.126C209.748 129.118 209.725 129.113 209.703 129.113C209.68 129.113 209.657 129.118 209.637 129.126C209.616 129.135 209.597 129.148 209.581 129.164L207.814 130.93V128.941C207.814 128.896 207.796 128.852 207.764 128.82C207.732 128.788 207.688 128.77 207.643 128.77C207.598 128.77 207.554 128.789 207.523 128.821C207.491 128.853 207.472 128.896 207.471 128.941V130.93L205.708 129.154C205.692 129.138 205.673 129.125 205.652 129.116C205.632 129.107 205.609 129.103 205.587 129.103C205.564 129.103 205.541 129.107 205.521 129.116C205.5 129.125 205.481 129.138 205.465 129.154C205.433 129.186 205.415 129.23 205.415 129.275C205.415 129.321 205.433 129.365 205.465 129.397L207.231 131.16H205.242C205.197 131.161 205.153 131.179 205.121 131.211C205.09 131.243 205.071 131.287 205.07 131.332C205.07 131.377 205.088 131.421 205.121 131.453C205.153 131.485 205.196 131.503 205.242 131.503H207.231L205.465 133.27C205.433 133.302 205.415 133.346 205.415 133.391C205.415 133.437 205.433 133.481 205.465 133.513C205.498 133.544 205.541 133.561 205.587 133.561C205.632 133.561 205.675 133.544 205.708 133.513L207.471 131.747V133.733C207.471 133.778 207.489 133.822 207.522 133.854C207.554 133.886 207.597 133.904 207.643 133.904C207.688 133.904 207.732 133.886 207.764 133.854C207.796 133.822 207.814 133.778 207.814 133.733V131.747L209.581 133.513C209.614 133.544 209.657 133.561 209.703 133.561C209.748 133.561 209.791 133.544 209.824 133.513C209.856 133.481 209.874 133.437 209.874 133.391C209.874 133.346 209.856 133.302 209.824 133.27L208.058 131.503H210.044C210.089 131.503 210.133 131.485 210.165 131.453C210.197 131.421 210.215 131.377 210.215 131.332C210.213 131.288 210.193 131.247 210.162 131.217C210.13 131.187 210.088 131.17 210.044 131.171Z" fill="#1E88E5"/>
<path d="M217.247 131.171H215.261L217.027 129.408C217.059 129.375 217.077 129.331 217.077 129.286C217.077 129.24 217.059 129.197 217.027 129.164C217.012 129.148 216.993 129.135 216.972 129.126C216.951 129.118 216.928 129.113 216.906 129.113C216.883 129.113 216.861 129.118 216.84 129.126C216.819 129.135 216.8 129.148 216.784 129.164L215.017 130.93V128.941C215.017 128.896 214.999 128.852 214.967 128.82C214.935 128.788 214.891 128.77 214.846 128.77C214.801 128.77 214.758 128.789 214.726 128.821C214.694 128.853 214.675 128.896 214.674 128.941V130.93L212.911 129.154C212.895 129.138 212.877 129.125 212.856 129.116C212.835 129.107 212.812 129.103 212.79 129.103C212.767 129.103 212.745 129.107 212.724 129.116C212.703 129.125 212.684 129.138 212.668 129.154C212.636 129.186 212.619 129.23 212.619 129.275C212.619 129.321 212.636 129.365 212.668 129.397L214.434 131.16H212.445C212.4 131.161 212.357 131.179 212.325 131.211C212.293 131.243 212.274 131.287 212.273 131.332C212.273 131.377 212.291 131.421 212.324 131.453C212.356 131.485 212.399 131.503 212.445 131.503H214.434L212.668 133.27C212.636 133.302 212.619 133.346 212.619 133.391C212.619 133.437 212.636 133.481 212.668 133.513C212.701 133.544 212.744 133.561 212.79 133.561C212.835 133.561 212.878 133.544 212.911 133.513L214.674 131.747V133.733C214.674 133.778 214.693 133.822 214.725 133.854C214.757 133.886 214.8 133.904 214.846 133.904C214.891 133.904 214.935 133.886 214.967 133.854C214.999 133.822 215.017 133.778 215.017 133.733V131.747L216.784 133.513C216.817 133.544 216.86 133.561 216.906 133.561C216.951 133.561 216.994 133.544 217.027 133.513C217.059 133.481 217.077 133.437 217.077 133.391C217.077 133.346 217.059 133.302 217.027 133.27L215.261 131.503H217.247C217.292 131.503 217.336 131.485 217.368 131.453C217.4 131.421 217.418 131.377 217.418 131.332C217.416 131.288 217.397 131.247 217.365 131.217C217.333 131.187 217.291 131.17 217.247 131.171Z" fill="#1E88E5"/>
<path d="M224.45 131.171H222.464L224.231 129.408C224.262 129.375 224.28 129.331 224.28 129.286C224.28 129.24 224.262 129.197 224.231 129.164C224.215 129.148 224.196 129.135 224.175 129.126C224.154 129.118 224.131 129.113 224.109 129.113C224.086 129.113 224.064 129.118 224.043 129.126C224.022 129.135 224.003 129.148 223.987 129.164L222.221 130.93V128.941C222.221 128.896 222.203 128.852 222.17 128.82C222.138 128.788 222.095 128.77 222.049 128.77C222.004 128.77 221.961 128.789 221.929 128.821C221.897 128.853 221.878 128.896 221.878 128.941V130.93L220.115 129.154C220.099 129.138 220.08 129.125 220.059 129.116C220.038 129.107 220.015 129.103 219.993 129.103C219.97 129.103 219.948 129.107 219.927 129.116C219.906 129.125 219.887 129.138 219.871 129.154C219.839 129.186 219.822 129.23 219.822 129.275C219.822 129.321 219.839 129.365 219.871 129.397L221.637 131.16H219.648C219.603 131.161 219.56 131.179 219.528 131.211C219.496 131.243 219.477 131.287 219.477 131.332C219.477 131.377 219.495 131.421 219.527 131.453C219.559 131.485 219.603 131.503 219.648 131.503H221.637L219.871 133.27C219.839 133.302 219.822 133.346 219.822 133.391C219.822 133.437 219.839 133.481 219.871 133.513C219.904 133.544 219.948 133.561 219.993 133.561C220.038 133.561 220.082 133.544 220.115 133.513L221.878 131.747V133.733C221.878 133.778 221.896 133.822 221.928 133.854C221.96 133.886 222.004 133.904 222.049 133.904C222.095 133.904 222.138 133.886 222.17 133.854C222.203 133.822 222.221 133.778 222.221 133.733V131.747L223.987 133.513C224.02 133.544 224.064 133.561 224.109 133.561C224.154 133.561 224.198 133.544 224.231 133.513C224.262 133.481 224.28 133.437 224.28 133.391C224.28 133.346 224.262 133.302 224.231 133.27L222.464 131.503H224.45C224.496 131.503 224.539 131.485 224.571 131.453C224.604 131.421 224.622 131.377 224.622 131.332C224.619 131.288 224.6 131.247 224.568 131.217C224.536 131.187 224.494 131.17 224.45 131.171Z" fill="#1E88E5"/>
<path d="M231.653 131.171H229.667L231.434 129.408C231.465 129.375 231.483 129.331 231.483 129.286C231.483 129.24 231.465 129.197 231.434 129.164C231.418 129.148 231.399 129.135 231.378 129.126C231.357 129.118 231.335 129.113 231.312 129.113C231.289 129.113 231.267 129.118 231.246 129.126C231.225 129.135 231.206 129.148 231.19 129.164L229.424 130.93V128.941C229.424 128.896 229.406 128.852 229.373 128.82C229.341 128.788 229.298 128.77 229.252 128.77C229.207 128.77 229.164 128.789 229.132 128.821C229.1 128.853 229.082 128.896 229.081 128.941V130.93L227.318 129.154C227.302 129.138 227.283 129.125 227.262 129.116C227.241 129.107 227.219 129.103 227.196 129.103C227.173 129.103 227.151 129.107 227.13 129.116C227.109 129.125 227.09 129.138 227.074 129.154C227.042 129.186 227.025 129.23 227.025 129.275C227.025 129.321 227.042 129.365 227.074 129.397L228.841 131.16H226.851C226.806 131.161 226.763 131.179 226.731 131.211C226.699 131.243 226.681 131.287 226.68 131.332C226.68 131.377 226.698 131.421 226.73 131.453C226.762 131.485 226.806 131.503 226.851 131.503H228.841L227.074 133.27C227.042 133.302 227.025 133.346 227.025 133.391C227.025 133.437 227.042 133.481 227.074 133.513C227.107 133.544 227.151 133.561 227.196 133.561C227.241 133.561 227.285 133.544 227.318 133.513L229.081 131.747V133.733C229.081 133.778 229.099 133.822 229.131 133.854C229.163 133.886 229.207 133.904 229.252 133.904C229.298 133.904 229.341 133.886 229.373 133.854C229.406 133.822 229.424 133.778 229.424 133.733V131.747L231.19 133.513C231.223 133.544 231.267 133.561 231.312 133.561C231.357 133.561 231.401 133.544 231.434 133.513C231.465 133.481 231.483 133.437 231.483 133.391C231.483 133.346 231.465 133.302 231.434 133.27L229.667 131.503H231.653C231.699 131.503 231.742 131.485 231.774 131.453C231.807 131.421 231.825 131.377 231.825 131.332C231.822 131.288 231.803 131.247 231.771 131.217C231.739 131.187 231.697 131.17 231.653 131.171Z" fill="#1E88E5"/>
<path d="M238.856 131.171H236.87L238.637 129.408C238.668 129.375 238.686 129.331 238.686 129.286C238.686 129.24 238.668 129.197 238.637 129.164C238.621 129.148 238.602 129.135 238.581 129.126C238.56 129.118 238.538 129.113 238.515 129.113C238.492 129.113 238.47 129.118 238.449 129.126C238.428 129.135 238.409 129.148 238.393 129.164L236.627 130.93V128.941C236.627 128.896 236.609 128.852 236.577 128.82C236.544 128.788 236.501 128.77 236.455 128.77C236.41 128.77 236.367 128.789 236.335 128.821C236.303 128.853 236.285 128.896 236.284 128.941V130.93L234.521 129.154C234.505 129.138 234.486 129.125 234.465 129.116C234.444 129.107 234.422 129.103 234.399 129.103C234.376 129.103 234.354 129.107 234.333 129.116C234.312 129.125 234.293 129.138 234.277 129.154C234.246 129.186 234.228 129.23 234.228 129.275C234.228 129.321 234.246 129.365 234.277 129.397L236.044 131.16H234.054C234.009 131.161 233.966 131.179 233.934 131.211C233.902 131.243 233.884 131.287 233.883 131.332C233.883 131.377 233.901 131.421 233.933 131.453C233.965 131.485 234.009 131.503 234.054 131.503H236.044L234.277 133.27C234.246 133.302 234.228 133.346 234.228 133.391C234.228 133.437 234.246 133.481 234.277 133.513C234.31 133.544 234.354 133.561 234.399 133.561C234.444 133.561 234.488 133.544 234.521 133.513L236.284 131.747V133.733C236.284 133.778 236.302 133.822 236.334 133.854C236.366 133.886 236.41 133.904 236.455 133.904C236.501 133.904 236.544 133.886 236.577 133.854C236.609 133.822 236.627 133.778 236.627 133.733V131.747L238.393 133.513C238.426 133.544 238.47 133.561 238.515 133.561C238.56 133.561 238.604 133.544 238.637 133.513C238.668 133.481 238.686 133.437 238.686 133.391C238.686 133.346 238.668 133.302 238.637 133.27L236.87 131.503H238.856C238.902 131.503 238.945 131.485 238.978 131.453C239.01 131.421 239.028 131.377 239.028 131.332C239.025 131.288 239.006 131.247 238.974 131.217C238.942 131.187 238.9 131.17 238.856 131.171Z" fill="#1E88E5"/>
<path d="M246.059 131.171H244.073L245.84 129.408C245.872 129.375 245.889 129.331 245.889 129.286C245.889 129.24 245.872 129.197 245.84 129.164C245.824 129.148 245.805 129.135 245.784 129.126C245.763 129.118 245.741 129.113 245.718 129.113C245.696 129.113 245.673 129.118 245.652 129.126C245.631 129.135 245.612 129.148 245.596 129.164L243.83 130.93V128.941C243.83 128.896 243.812 128.852 243.78 128.82C243.748 128.788 243.704 128.77 243.658 128.77C243.613 128.77 243.57 128.789 243.538 128.821C243.506 128.853 243.488 128.896 243.487 128.941V130.93L241.724 129.154C241.708 129.138 241.689 129.125 241.668 129.116C241.647 129.107 241.625 129.103 241.602 129.103C241.579 129.103 241.557 129.107 241.536 129.116C241.515 129.125 241.496 129.138 241.48 129.154C241.449 129.186 241.431 129.23 241.431 129.275C241.431 129.321 241.449 129.365 241.48 129.397L243.247 131.16H241.257C241.212 131.161 241.169 131.179 241.137 131.211C241.105 131.243 241.087 131.287 241.086 131.332C241.086 131.377 241.104 131.421 241.136 131.453C241.168 131.485 241.212 131.503 241.257 131.503H243.247L241.48 133.27C241.449 133.302 241.431 133.346 241.431 133.391C241.431 133.437 241.449 133.481 241.48 133.513C241.513 133.544 241.557 133.561 241.602 133.561C241.647 133.561 241.691 133.544 241.724 133.513L243.487 131.747V133.733C243.487 133.778 243.505 133.822 243.537 133.854C243.569 133.886 243.613 133.904 243.658 133.904C243.704 133.904 243.748 133.886 243.78 133.854C243.812 133.822 243.83 133.778 243.83 133.733V131.747L245.596 133.513C245.629 133.544 245.673 133.561 245.718 133.561C245.763 133.561 245.807 133.544 245.84 133.513C245.872 133.481 245.889 133.437 245.889 133.391C245.889 133.346 245.872 133.302 245.84 133.27L244.073 131.503H246.059C246.105 131.503 246.149 131.485 246.181 131.453C246.213 131.421 246.231 131.377 246.231 131.332C246.228 131.288 246.209 131.247 246.177 131.217C246.145 131.187 246.103 131.17 246.059 131.171Z" fill="#1E88E5"/>
<path d="M253.263 131.171H251.277L253.043 129.408C253.075 129.375 253.092 129.331 253.092 129.286C253.092 129.24 253.075 129.197 253.043 129.164C253.027 129.148 253.008 129.135 252.987 129.126C252.966 129.118 252.944 129.113 252.921 129.113C252.899 129.113 252.876 129.118 252.855 129.126C252.834 129.135 252.815 129.148 252.8 129.164L251.033 130.93V128.941C251.033 128.896 251.015 128.852 250.983 128.82C250.951 128.788 250.907 128.77 250.862 128.77C250.816 128.77 250.773 128.789 250.741 128.821C250.709 128.853 250.691 128.896 250.69 128.941V130.93L248.927 129.154C248.911 129.138 248.892 129.125 248.871 129.116C248.85 129.107 248.828 129.103 248.805 129.103C248.783 129.103 248.76 129.107 248.739 129.116C248.718 129.125 248.699 129.138 248.684 129.154C248.652 129.186 248.634 129.23 248.634 129.275C248.634 129.321 248.652 129.365 248.684 129.397L250.45 131.16H248.461C248.415 131.161 248.372 131.179 248.34 131.211C248.308 131.243 248.29 131.287 248.289 131.332C248.289 131.377 248.307 131.421 248.339 131.453C248.371 131.485 248.415 131.503 248.461 131.503H250.45L248.684 133.27C248.652 133.302 248.634 133.346 248.634 133.391C248.634 133.437 248.652 133.481 248.684 133.513C248.717 133.544 248.76 133.561 248.805 133.561C248.85 133.561 248.894 133.544 248.927 133.513L250.69 131.747V133.733C250.69 133.778 250.708 133.822 250.74 133.854C250.772 133.886 250.816 133.904 250.862 133.904C250.907 133.904 250.951 133.886 250.983 133.854C251.015 133.822 251.033 133.778 251.033 133.733V131.747L252.8 133.513C252.833 133.544 252.876 133.561 252.921 133.561C252.966 133.561 253.01 133.544 253.043 133.513C253.075 133.481 253.092 133.437 253.092 133.391C253.092 133.346 253.075 133.302 253.043 133.27L251.277 131.503H253.263C253.308 131.503 253.352 131.485 253.384 131.453C253.416 131.421 253.434 131.377 253.434 131.332C253.431 131.288 253.412 131.247 253.38 131.217C253.348 131.187 253.306 131.17 253.263 131.171Z" fill="#1E88E5"/>
<path d="M260.466 131.171H258.48L260.246 129.408C260.278 129.375 260.296 129.331 260.296 129.286C260.296 129.24 260.278 129.197 260.246 129.164C260.23 129.148 260.211 129.135 260.19 129.126C260.169 129.118 260.147 129.113 260.124 129.113C260.102 129.113 260.079 129.118 260.058 129.126C260.038 129.135 260.019 129.148 260.003 129.164L258.236 130.93V128.941C258.236 128.896 258.218 128.852 258.186 128.82C258.154 128.788 258.11 128.77 258.065 128.77C258.02 128.77 257.976 128.789 257.944 128.821C257.912 128.853 257.894 128.896 257.893 128.941V130.93L256.13 129.154C256.114 129.138 256.095 129.125 256.074 129.116C256.053 129.107 256.031 129.103 256.008 129.103C255.986 129.103 255.963 129.107 255.942 129.116C255.922 129.125 255.903 129.138 255.887 129.154C255.855 129.186 255.837 129.23 255.837 129.275C255.837 129.321 255.855 129.365 255.887 129.397L257.653 131.16H255.664C255.618 131.161 255.575 131.179 255.543 131.211C255.511 131.243 255.493 131.287 255.492 131.332C255.492 131.377 255.51 131.421 255.542 131.453C255.575 131.485 255.618 131.503 255.664 131.503H257.653L255.887 133.27C255.855 133.302 255.837 133.346 255.837 133.391C255.837 133.437 255.855 133.481 255.887 133.513C255.92 133.544 255.963 133.561 256.008 133.561C256.054 133.561 256.097 133.544 256.13 133.513L257.893 131.747V133.733C257.893 133.778 257.911 133.822 257.943 133.854C257.976 133.886 258.019 133.904 258.065 133.904C258.11 133.904 258.154 133.886 258.186 133.854C258.218 133.822 258.236 133.778 258.236 133.733V131.747L260.003 133.513C260.036 133.544 260.079 133.561 260.124 133.561C260.17 133.561 260.213 133.544 260.246 133.513C260.278 133.481 260.296 133.437 260.296 133.391C260.296 133.346 260.278 133.302 260.246 133.27L258.48 131.503H260.466C260.511 131.503 260.555 131.485 260.587 131.453C260.619 131.421 260.637 131.377 260.637 131.332C260.635 131.288 260.615 131.247 260.583 131.217C260.552 131.187 260.509 131.17 260.466 131.171Z" fill="#1E88E5"/>
<g opacity="0.1">
<path opacity="0.1" d="M293.916 167.792C293.136 171.516 292.057 175.172 290.691 178.723C290.928 178.253 291.127 177.759 291.316 177.269C292.691 173.704 293.775 170.033 294.557 166.293C295.535 161.628 295.908 156.346 293.062 152.521C292.376 151.609 291.494 150.621 291.525 149.551C291.271 149.874 291.074 150.239 290.942 150.628C290.599 151.866 291.648 152.995 292.417 154.024C295.264 157.841 294.89 163.13 293.916 167.792Z" fill="black"/>
<path opacity="0.1" d="M292.137 148.092C292.412 147.75 292.617 147.357 292.741 146.936C292.794 146.426 292.78 145.912 292.699 145.406C292.435 145.605 292.237 145.879 292.13 146.192C291.928 146.799 292.161 147.457 292.137 148.092Z" fill="black"/>
<path opacity="0.1" d="M312.58 178.989C312.353 179.338 312.041 179.623 311.674 179.819C311.195 179.989 310.676 180.015 310.182 179.895C307.887 179.552 305.38 178.845 303.349 179.953C302.248 180.55 301.394 181.634 300.17 181.908C298.143 182.361 296.414 180.416 294.411 179.85C292.991 179.456 291.495 179.781 290.065 180.193C289.781 180.799 289.397 181.353 288.93 181.833C290.507 181.38 292.185 180.924 293.766 181.363C295.769 181.918 297.498 183.863 299.528 183.421C300.75 183.15 301.607 182.066 302.705 181.466C304.763 180.358 307.243 181.054 309.537 181.411C310.032 181.527 310.549 181.501 311.029 181.335C311.396 181.138 311.708 180.851 311.935 180.502C312.556 179.682 313.036 178.764 313.355 177.785C313.126 178.205 312.867 178.607 312.58 178.989Z" fill="black"/>
</g>
</g>
<defs>
<clipPath id="clip0">
<rect width="400" height="276.148" fill="white"/>
</clipPath>
</defs>
</svg>
