<svg width="634" height="485" viewBox="0 0 634 485" fill="none" xmlns="http://www.w3.org/2000/svg">
<g clip-path="url(#clip0)">
<path opacity="0.22" d="M633.9 66.4619V344.342C633.901 348.384 633.106 352.387 631.561 356.122C630.015 359.857 627.749 363.25 624.892 366.11C622.035 368.969 618.642 371.237 614.908 372.785C611.174 374.333 607.172 375.131 603.13 375.132H30.79C22.6256 375.127 14.7971 371.881 9.02403 366.108C3.25094 360.335 0.00529811 352.506 0 344.342H0V66.4619C0.00794252 58.2983 3.25443 50.4714 9.02695 44.6988C14.7995 38.9263 22.6264 35.6798 30.79 35.6719H603.13C611.29 35.6851 619.112 38.9339 624.88 44.7059C630.648 50.4778 633.892 58.3018 633.9 66.4619V66.4619Z" fill="url(#paint0_linear)"/>
<path d="M635.401 65.4289V343.299C635.411 347.332 634.627 351.327 633.093 355.057C631.56 358.787 629.307 362.178 626.462 365.038C623.618 367.897 620.238 370.168 616.517 371.721C612.795 373.274 608.803 374.078 604.771 374.089H32.2805C28.2384 374.092 24.2354 373.298 20.5 371.754C16.7645 370.209 13.3699 367.944 10.5099 365.088C7.64982 362.231 5.38037 358.84 3.83111 355.106C2.28184 351.373 1.48309 347.371 1.48047 343.329V343.329V65.4289C1.49105 57.2635 4.73944 49.4355 10.5133 43.6617C16.2871 37.8879 24.115 34.6395 32.2805 34.6289H604.62C612.099 34.6302 619.321 37.3541 624.937 42.2916C630.554 47.2291 634.181 54.0425 635.141 61.4589C635.317 62.7748 635.404 64.1012 635.401 65.4289Z" fill="#1E88E5"/>
<path d="M635.401 65.4289V343.299C635.411 347.332 634.627 351.327 633.093 355.057C631.56 358.787 629.307 362.178 626.462 365.038C623.618 367.897 620.238 370.168 616.517 371.721C612.795 373.274 608.803 374.078 604.771 374.089H32.2805C28.2384 374.092 24.2354 373.298 20.5 371.754C16.7645 370.209 13.3699 367.944 10.5099 365.088C7.64982 362.231 5.38037 358.84 3.83111 355.106C2.28184 351.373 1.48309 347.371 1.48047 343.329V343.329V65.4289C1.49105 57.2635 4.73944 49.4355 10.5133 43.6617C16.2871 37.8879 24.115 34.6395 32.2805 34.6289H604.62C612.099 34.6302 619.321 37.3541 624.937 42.2916C630.554 47.2291 634.181 54.0425 635.141 61.4589C635.317 62.7748 635.404 64.1012 635.401 65.4289Z" fill="url(#paint1_linear)"/>
<path d="M633.662 62.5019H0.261719C1.22367 55.0846 4.85261 48.2711 10.4708 43.3337C16.089 38.3964 23.3123 35.6729 30.7917 35.6719H603.132C610.612 35.6708 617.836 38.3935 623.455 43.3312C629.073 48.269 632.702 55.0837 633.662 62.5019V62.5019Z" fill="url(#paint2_linear)"/>
<path d="M413.7 279.012H199.44C195.065 279.012 191.52 282.558 191.52 286.932V299.962C191.52 304.336 195.065 307.882 199.44 307.882H413.7C418.074 307.882 421.62 304.336 421.62 299.962V286.932C421.62 282.558 418.074 279.012 413.7 279.012Z" fill="white" stroke="#A0A0A0" stroke-width="0.88" stroke-miterlimit="10"/>
<path d="M210.278 300.119C213.752 300.119 216.568 297.303 216.568 293.829C216.568 290.355 213.752 287.539 210.278 287.539C206.804 287.539 203.988 290.355 203.988 293.829C203.988 297.303 206.804 300.119 210.278 300.119Z" fill="#1E88E5"/>
<path d="M229.849 300.119C233.322 300.119 236.139 297.303 236.139 293.829C236.139 290.355 233.322 287.539 229.849 287.539C226.375 287.539 223.559 290.355 223.559 293.829C223.559 297.303 226.375 300.119 229.849 300.119Z" fill="#1E88E5"/>
<path d="M249.431 300.119C252.904 300.119 255.721 297.303 255.721 293.829C255.721 290.355 252.904 287.539 249.431 287.539C245.957 287.539 243.141 290.355 243.141 293.829C243.141 297.303 245.957 300.119 249.431 300.119Z" fill="#1E88E5"/>
<path d="M269.001 300.119C272.475 300.119 275.291 297.303 275.291 293.829C275.291 290.355 272.475 287.539 269.001 287.539C265.527 287.539 262.711 290.355 262.711 293.829C262.711 297.303 265.527 300.119 269.001 300.119Z" fill="#1E88E5"/>
<path d="M437.151 292.11V288.79H439.771V286.65H437.151V285.05H439.771V282.91H434.521V292.11C432.926 292.436 431.508 293.343 430.543 294.654C429.579 295.965 429.135 297.588 429.299 299.208C429.463 300.828 430.222 302.329 431.43 303.421C432.638 304.513 434.208 305.117 435.836 305.117C437.464 305.117 439.034 304.513 440.241 303.421C441.449 302.329 442.209 300.828 442.372 299.208C442.536 297.588 442.093 295.965 441.128 294.654C440.163 293.343 438.746 292.436 437.151 292.11V292.11ZM435.841 303.11C434.937 303.112 434.053 302.846 433.3 302.346C432.547 301.845 431.96 301.133 431.612 300.298C431.265 299.464 431.172 298.545 431.347 297.658C431.521 296.772 431.954 295.956 432.592 295.316C433.23 294.675 434.043 294.238 434.929 294.06C435.815 293.882 436.734 293.97 437.57 294.314C438.406 294.658 439.121 295.242 439.625 295.993C440.129 296.743 440.399 297.626 440.401 298.53V298.53C440.401 299.741 439.921 300.903 439.066 301.762C438.212 302.62 437.052 303.105 435.841 303.11V303.11Z" fill="#1E88E5"/>
<path d="M345.642 125.828H280.022C273.527 125.828 268.262 131.093 268.262 137.588V203.208C268.262 209.703 273.527 214.968 280.022 214.968H345.642C352.137 214.968 357.402 209.703 357.402 203.208V137.588C357.402 131.093 352.137 125.828 345.642 125.828Z" fill="url(#paint3_linear)"/>
<path d="M345.999 125.828H285.109C278.818 125.828 273.719 130.928 273.719 137.218V203.578C273.719 209.869 278.818 214.968 285.109 214.968H345.999C352.289 214.968 357.389 209.869 357.389 203.578V137.218C357.389 130.928 352.289 125.828 345.999 125.828Z" fill="#1E88E5"/>
<path d="M360.842 170.689L356.242 175.059L354.242 176.939C352.666 175.056 350.666 173.575 348.406 172.617C346.146 171.659 343.69 171.252 341.242 171.429C340.171 171.558 339.086 171.381 338.112 170.919C334.802 169.039 339.992 162.629 339.992 162.629C341.134 162.609 342.276 162.659 343.412 162.779H343.712L344.622 162.889C349.002 163.509 356.002 165.579 360.842 170.689Z" fill="white"/>
<path opacity="0.26" d="M356.059 174.649L356.239 175.059L354.239 176.939C352.664 175.056 350.664 173.575 348.404 172.617C346.143 171.659 343.688 171.251 341.239 171.429C340.169 171.558 339.084 171.381 338.109 170.919L339.989 162.629C339.989 162.629 341.839 162.629 343.409 162.779H343.709C344.015 162.795 344.319 162.832 344.619 162.889C344.619 162.889 345.709 167.549 344.899 169.509C344.899 169.539 352.569 170.819 356.059 174.649Z" fill="url(#paint4_linear)"/>
<path d="M314.38 144.621H311.28C308.789 144.621 306.77 146.64 306.77 149.131V191.671C306.77 194.162 308.789 196.181 311.28 196.181H314.38C316.87 196.181 318.89 194.162 318.89 191.671V149.131C318.89 146.64 316.87 144.621 314.38 144.621Z" fill="url(#paint5_linear)"/>
<path d="M341.219 169.698C341.169 175.096 338.99 180.256 335.158 184.057C331.325 187.858 326.147 189.993 320.749 189.998H316.339C315.536 189.995 314.758 189.722 314.13 189.223C313.501 188.723 313.06 188.027 312.876 187.246C312.692 186.464 312.777 185.644 313.117 184.917C313.457 184.19 314.031 183.598 314.749 183.238C315.244 182.997 315.787 182.871 316.339 182.868H317.999C319.752 182.868 321.488 182.523 323.107 181.852C324.727 181.181 326.199 180.198 327.438 178.958C328.678 177.718 329.661 176.247 330.332 174.627C331.003 173.007 331.349 171.271 331.349 169.518V169.518V169.228C331.229 165.704 329.738 162.367 327.194 159.926C324.65 157.484 321.254 156.133 317.729 156.158H315.729C314.954 156.158 314.211 155.85 313.664 155.303C313.116 154.755 312.809 154.013 312.809 153.238V153.238V151.998C312.809 151.224 313.116 150.481 313.664 149.933C314.211 149.386 314.954 149.078 315.729 149.078H320.419C331.729 149.068 341.299 158.348 341.219 169.698Z" fill="white"/>
<path opacity="0.26" d="M335.76 170.518C335.721 175.207 333.834 179.691 330.509 182.997C327.184 186.304 322.689 188.165 318 188.178H314.16C313.82 188.18 313.482 188.126 313.16 188.018C312.953 187.601 312.829 187.146 312.797 186.681C312.765 186.216 312.825 185.749 312.974 185.307C313.123 184.865 313.357 184.456 313.663 184.105C313.97 183.753 314.343 183.466 314.76 183.258V183.258C315.256 183.017 315.799 182.891 316.35 182.888H318C319.753 182.888 321.489 182.543 323.109 181.872C324.729 181.201 326.2 180.218 327.44 178.978C328.68 177.738 329.663 176.267 330.334 174.647C331.005 173.027 331.35 171.291 331.35 169.538V169.538V169.248C331.23 165.724 329.74 162.387 327.196 159.946C324.652 157.504 321.256 156.153 317.73 156.178H315.73C314.956 156.178 314.213 155.87 313.666 155.323C313.118 154.775 312.81 154.033 312.81 153.258V152.708C313.069 152.625 313.339 152.581 313.61 152.578H317.68C322.451 152.578 327.029 154.464 330.416 157.824C333.802 161.184 335.723 165.747 335.76 170.518V170.518Z" fill="url(#paint6_linear)"/>
<path d="M330.691 165.469C330.691 165.469 332.031 169.059 330.361 174.539C330.361 174.539 324.031 181.049 329.431 191.399L333.891 196.169L328.701 201.279C325.47 198.784 322.961 195.473 321.432 191.688C319.903 187.902 319.409 183.778 320.001 179.739C321.181 170.919 330.691 165.469 330.691 165.469Z" fill="white"/>
<path d="M324.27 205.398L365.37 166.398L399.85 196.168L357.39 236.898L324.27 205.398Z" fill="#1E88E5"/>
<path d="M324.27 205.398L327 220.858L357.39 250.018V236.898L324.27 205.398Z" fill="#1E88E5"/>
<path d="M399.851 196.172V210.362L357.391 250.022V236.902L399.851 196.172Z" fill="#1E88E5"/>
<path d="M324.27 205.398L327 220.858L357.39 250.018V236.898L324.27 205.398Z" fill="url(#paint7_linear)"/>
<path d="M399.851 196.172V210.362L357.391 250.022V236.902L399.851 196.172Z" fill="url(#paint8_linear)"/>
<path d="M331.852 212.611L373.342 173.281L377.172 176.591L335.762 216.331L331.852 212.611Z" fill="url(#paint9_linear)"/>
<path d="M344.102 224.002L386.582 184.672L390.412 187.972L348.012 227.712L344.102 224.002Z" fill="url(#paint10_linear)"/>
<path opacity="0.18" d="M611.369 439.218C605.439 507.548 417.449 485.658 282.259 457.958C147.069 430.258 35.5292 485.658 9.8092 439.218C-1.5808 418.658 5.9992 392.998 18.0592 370.738C22.643 373.297 27.8095 374.63 33.0592 374.608H600.299C608.109 392.998 613.479 414.998 611.369 439.218Z" fill="#1E88E5"/>
<path opacity="0.18" d="M120.129 36.1911C120.129 36.1911 248.489 -45.2389 412.869 36.1911H120.129Z" fill="#1E88E5"/>
</g>
<defs>
<linearGradient id="paint0_linear" x1="0" y1="205.402" x2="633.9" y2="205.402" gradientUnits="userSpaceOnUse">
<stop stop-color="#68E1FD"/>
<stop offset="1" stop-color="#69B9EB"/>
</linearGradient>
<linearGradient id="paint1_linear" x1="-90.3895" y1="120.919" x2="874.21" y2="317.799" gradientUnits="userSpaceOnUse">
<stop stop-color="white" stop-opacity="0"/>
<stop offset="1" stop-color="white"/>
</linearGradient>
<linearGradient id="paint2_linear" x1="-54.1383" y1="56.9019" x2="1078.7" y2="33.9919" gradientUnits="userSpaceOnUse">
<stop stop-opacity="0"/>
<stop offset="0.91" stop-opacity="0.8"/>
<stop offset="1"/>
</linearGradient>
<linearGradient id="paint3_linear" x1="28249.3" y1="30263.4" x2="10720.8" y2="36877.6" gradientUnits="userSpaceOnUse">
<stop stop-opacity="0"/>
<stop offset="0.91" stop-opacity="0.8"/>
<stop offset="1"/>
</linearGradient>
<linearGradient id="paint4_linear" x1="6743.98" y1="1885.55" x2="6398.75" y2="5623.47" gradientUnits="userSpaceOnUse">
<stop stop-opacity="0"/>
<stop offset="0.91" stop-opacity="0.8"/>
<stop offset="1"/>
</linearGradient>
<linearGradient id="paint5_linear" x1="3942.05" y1="17523.6" x2="5185.21" y2="17524.5" gradientUnits="userSpaceOnUse">
<stop stop-opacity="0"/>
<stop offset="0.91" stop-opacity="0.8"/>
<stop offset="1"/>
</linearGradient>
<linearGradient id="paint6_linear" x1="7881.57" y1="4339.5" x2="6234.97" y2="13419.3" gradientUnits="userSpaceOnUse">
<stop stop-opacity="0"/>
<stop offset="0.91" stop-opacity="0.8"/>
<stop offset="1"/>
</linearGradient>
<linearGradient id="paint7_linear" x1="11352.6" y1="18718.2" x2="13185.1" y2="15079.4" gradientUnits="userSpaceOnUse">
<stop stop-opacity="0"/>
<stop offset="0.91" stop-opacity="0.8"/>
<stop offset="1"/>
</linearGradient>
<linearGradient id="paint8_linear" x1="16645.9" y1="22132.1" x2="14984" y2="17563.2" gradientUnits="userSpaceOnUse">
<stop stop-opacity="0"/>
<stop offset="0.91" stop-opacity="0.8"/>
<stop offset="1"/>
</linearGradient>
<linearGradient id="paint9_linear" x1="17174.1" y1="14650.2" x2="11801.6" y2="22704.6" gradientUnits="userSpaceOnUse">
<stop stop-opacity="0"/>
<stop offset="0.91" stop-opacity="0.8"/>
<stop offset="1"/>
</linearGradient>
<linearGradient id="paint10_linear" x1="18197.5" y1="15077.8" x2="12872.2" y2="23238.2" gradientUnits="userSpaceOnUse">
<stop stop-opacity="0"/>
<stop offset="0.91" stop-opacity="0.8"/>
<stop offset="1"/>
</linearGradient>
<clipPath id="clip0">
<rect width="634" height="485" fill="white"/>
</clipPath>
</defs>
</svg>
