<svg width="907" height="889" viewBox="0 0 907 889" fill="none" xmlns="http://www.w3.org/2000/svg">
<path opacity="0.24" d="M446.829 192.091C375.002 188.697 300.246 185.796 234.279 214.416C158.207 247.433 104.095 319.223 75.4087 397.055C46.723 474.887 40.4746 559.014 37.5298 641.914C34.5401 724.307 42.2534 821.563 111.987 865.51C155.711 893.054 211.229 890.392 262.771 886.789L658.631 859.155C717.483 855.043 781.357 848.837 824.363 808.449C879.851 756.367 878.865 667.305 857.249 594.318C835.634 521.332 797.456 452.262 791.761 376.315C786.813 311.732 805.259 222.207 727.02 204.487C641.112 185.078 535.084 196.263 446.829 192.091Z" fill="#1E88E5"/>
<path d="M698.891 156.22C742.03 156.22 777.001 121.249 777.001 78.11C777.001 34.971 742.03 0 698.891 0C655.752 0 620.781 34.971 620.781 78.11C620.781 121.249 655.752 156.22 698.891 156.22Z" fill="#FF5252"/>
<path d="M774.5 131.949H133.5V634.949H774.5V131.949Z" fill="#1E88E5"/>
<path opacity="0.1" d="M774.5 131.949H133.5V634.949H774.5V131.949Z" fill="black"/>
<path d="M907 200.949H0V637.949H907V200.949Z" fill="#565656"/>
<path d="M719 79.9492H189V671.949H719V79.9492Z" fill="#1E88E5"/>
<path d="M149 259.949H37V331.949H149V259.949Z" fill="#1E88E5"/>
<path d="M149 381.949H37V453.949H149V381.949Z" fill="#1E88E5"/>
<path d="M149 503.949H37V575.949H149V503.949Z" fill="#1E88E5"/>
<path d="M369 137.949H257V209.949H369V137.949Z" fill="#565656"/>
<path d="M369 259.949H257V331.949H369V259.949Z" fill="#565656"/>
<path d="M369 381.949H257V453.949H369V381.949Z" fill="#565656"/>
<path d="M539 209.949H651V137.949H539V209.949Z" fill="#565656"/>
<path d="M539 331.949H651V259.949H539V331.949Z" fill="#565656"/>
<path d="M539 453.949H651V381.949H539V453.949Z" fill="#565656"/>
<path d="M862 259.949H750V331.949H862V259.949Z" fill="#1E88E5"/>
<path d="M862 381.949H750V453.949H862V381.949Z" fill="#1E88E5"/>
<path d="M862 503.949H750V575.949H862V503.949Z" fill="#1E88E5"/>
<path d="M503 479.949H405V671.949H503V479.949Z" fill="#565656"/>
<path opacity="0.1" d="M369 137.949H257V159.949H369V137.949Z" fill="black"/>
<path opacity="0.1" d="M651 137.949H539V159.949H651V137.949Z" fill="black"/>
<path opacity="0.1" d="M651 259.949H539V281.949H651V259.949Z" fill="black"/>
<path opacity="0.1" d="M651 381.949H539V403.949H651V381.949Z" fill="black"/>
<path opacity="0.1" d="M369 259.949H257V281.949H369V259.949Z" fill="black"/>
<path opacity="0.1" d="M369 381.949H257V403.949H369V381.949Z" fill="black"/>
<path opacity="0.1" d="M149 259.949H37V276.949H149V259.949Z" fill="black"/>
<path opacity="0.1" d="M149 381.949H37V398.949H149V381.949Z" fill="black"/>
<path opacity="0.1" d="M149 503.949H37V520.949H149V503.949Z" fill="black"/>
<path opacity="0.1" d="M862 259.949H750V276.949H862V259.949Z" fill="black"/>
<path opacity="0.1" d="M862 381.949H750V398.949H862V381.949Z" fill="black"/>
<path opacity="0.1" d="M862 503.949H750V520.949H862V503.949Z" fill="black"/>
</svg>
