<svg width="400" height="100" viewBox="0 0 400 100" fill="none" xmlns="http://www.w3.org/2000/svg">
<rect width="400" height="100" rx="20" fill="#323232"/>
<path d="M74.9318 44.28L37.115 22.798C36.196 22.2759 35.1505 22 34.0918 22C33.0194 22 31.9623 22.2827 31.0347 22.8175C29.1628 23.8967 28 25.9032 28 28.054V71.0182C28 73.1688 29.1628 75.1752 31.0342 76.2544C31.9618 76.7897 33.0192 77.0725 34.0916 77.0725C35.1497 77.0725 36.1953 76.7964 37.1147 76.2743L74.931 54.792C76.8241 53.7165 78 51.7027 78 49.536C78 47.3693 76.8246 45.3555 74.9318 44.28ZM58.5444 39.2004L53.3521 46.388L40.9322 29.1956L58.5444 39.2004ZM33.8534 73.3798C33.5157 73.3473 33.1845 73.2494 32.8886 73.0787C32.1522 72.6541 31.6946 71.8644 31.6946 71.0182V28.0537C31.6946 27.2075 32.1522 26.4179 32.8889 25.9932C33.1837 25.8231 33.5123 25.7218 33.85 25.6873L51.078 49.536L33.8534 73.3798ZM40.9322 69.8766L53.3521 52.684L58.5444 59.8715L40.9322 69.8766ZM73.0981 51.6041L61.769 58.0396L55.626 49.536L61.769 41.0323L73.0981 47.4679C73.8429 47.8911 74.3057 48.6834 74.3057 49.536C74.3057 50.3885 73.8431 51.1811 73.0981 51.6041Z" fill="white"/>
<path d="M138.679 33.8037C138.137 34.5739 137.286 35.1748 136.127 35.6064C134.976 36.0381 133.685 36.2539 132.255 36.2539C130.808 36.2539 129.521 35.9069 128.396 35.2129C127.27 34.5189 126.398 33.5371 125.78 32.2676C125.162 30.998 124.849 29.5423 124.841 27.9004V25.5645C124.841 23 125.488 20.9772 126.783 19.4961C128.078 18.0065 129.817 17.2617 132.001 17.2617C133.905 17.2617 135.437 17.7484 136.597 18.7217C137.756 19.6865 138.446 21.0195 138.666 22.7207H137.104C136.876 21.3665 136.322 20.3424 135.441 19.6484C134.57 18.946 133.427 18.5947 132.014 18.5947C130.287 18.5947 128.92 19.2083 127.913 20.4355C126.906 21.6628 126.402 23.3936 126.402 25.6279V27.8115C126.402 29.2165 126.639 30.4606 127.113 31.5439C127.596 32.6188 128.281 33.4525 129.17 34.0449C130.067 34.6374 131.095 34.9336 132.255 34.9336C133.601 34.9336 134.756 34.722 135.721 34.2988C136.347 34.0195 136.812 33.6937 137.117 33.3213V28.5479H132.153V27.2275H138.679V33.8037ZM148.073 36.2539C146.905 36.2539 145.847 35.9661 144.899 35.3906C143.96 34.8151 143.228 34.0153 142.703 32.9912C142.178 31.9587 141.916 30.8034 141.916 29.5254V28.9795C141.916 27.6592 142.17 26.4701 142.678 25.4121C143.194 24.3542 143.909 23.5247 144.823 22.9238C145.737 22.3145 146.728 22.0098 147.794 22.0098C149.461 22.0098 150.782 22.5811 151.755 23.7236C152.737 24.8577 153.228 26.4108 153.228 28.3828V29.2334H143.427V29.5254C143.427 31.0827 143.871 32.3818 144.76 33.4229C145.657 34.4554 146.783 34.9717 148.137 34.9717C148.949 34.9717 149.664 34.8236 150.282 34.5273C150.909 34.2311 151.476 33.7572 151.983 33.1055L152.936 33.8291C151.818 35.4456 150.198 36.2539 148.073 36.2539ZM147.794 23.3047C146.651 23.3047 145.687 23.7236 144.899 24.5615C144.121 25.3994 143.647 26.5251 143.478 27.9385H151.717V27.7734C151.674 26.4531 151.298 25.3783 150.587 24.5488C149.876 23.7194 148.945 23.3047 147.794 23.3047ZM158.547 18.7471V22.2637H161.391V23.5078H158.547V32.6611C158.547 33.4229 158.682 33.9899 158.953 34.3623C159.232 34.7347 159.694 34.9209 160.337 34.9209C160.591 34.9209 161.001 34.8786 161.568 34.7939L161.632 36.0381C161.234 36.182 160.692 36.2539 160.007 36.2539C158.966 36.2539 158.208 35.9535 157.734 35.3525C157.26 34.7432 157.023 33.8503 157.023 32.6738V23.5078H154.497V22.2637H157.023V18.7471H158.547ZM172.562 36H171.039V22.2637H172.562V36ZM170.772 18.29C170.772 18.0023 170.866 17.7611 171.052 17.5664C171.238 17.3633 171.492 17.2617 171.813 17.2617C172.135 17.2617 172.389 17.3633 172.575 17.5664C172.77 17.7611 172.867 18.0023 172.867 18.29C172.867 18.5778 172.77 18.819 172.575 19.0137C172.389 19.2083 172.135 19.3057 171.813 19.3057C171.492 19.3057 171.238 19.2083 171.052 19.0137C170.866 18.819 170.772 18.5778 170.772 18.29ZM179.062 18.7471V22.2637H181.906V23.5078H179.062V32.6611C179.062 33.4229 179.198 33.9899 179.469 34.3623C179.748 34.7347 180.209 34.9209 180.853 34.9209C181.106 34.9209 181.517 34.8786 182.084 34.7939L182.147 36.0381C181.75 36.182 181.208 36.2539 180.522 36.2539C179.481 36.2539 178.724 35.9535 178.25 35.3525C177.776 34.7432 177.539 33.8503 177.539 32.6738V23.5078H175.013V22.2637H177.539V18.7471H179.062ZM190.539 28.9287C190.539 27.6084 190.793 26.4193 191.301 25.3613C191.817 24.3034 192.541 23.4824 193.472 22.8984C194.411 22.306 195.473 22.0098 196.658 22.0098C198.486 22.0098 199.967 22.653 201.102 23.9395C202.236 25.2174 202.803 26.9144 202.803 29.0303V29.3477C202.803 30.6764 202.545 31.874 202.028 32.9404C201.521 33.9984 200.801 34.8151 199.87 35.3906C198.939 35.9661 197.877 36.2539 196.684 36.2539C194.864 36.2539 193.383 35.6149 192.24 34.3369C191.106 33.0505 190.539 31.3493 190.539 29.2334V28.9287ZM192.062 29.3477C192.062 30.9896 192.486 32.3395 193.332 33.3975C194.187 34.4469 195.304 34.9717 196.684 34.9717C198.055 34.9717 199.163 34.4469 200.01 33.3975C200.865 32.3395 201.292 30.9473 201.292 29.2207V28.9287C201.292 27.8792 201.097 26.9186 200.708 26.0469C200.319 25.1751 199.773 24.5023 199.07 24.0283C198.368 23.5459 197.564 23.3047 196.658 23.3047C195.304 23.3047 194.2 23.8379 193.345 24.9043C192.49 25.9622 192.062 27.3503 192.062 29.0684V29.3477ZM207.398 22.2637L207.449 24.6123C207.965 23.766 208.609 23.1227 209.379 22.6826C210.149 22.234 211 22.0098 211.931 22.0098C213.403 22.0098 214.499 22.4245 215.219 23.2539C215.938 24.0833 216.302 25.3275 216.311 26.9863V36H214.8V26.9736C214.791 25.7464 214.529 24.8324 214.013 24.2314C213.505 23.6305 212.688 23.3301 211.562 23.3301C210.623 23.3301 209.789 23.6263 209.062 24.2188C208.342 24.8027 207.809 25.5941 207.462 26.5928V36H205.951V22.2637H207.398Z" fill="#F5F5F5"/>
<path d="M145.688 74.3086C144.659 75.6497 143.233 76.6654 141.41 77.3555C139.587 78.0456 137.517 78.3906 135.199 78.3906C132.816 78.3906 130.707 77.8503 128.871 76.7695C127.035 75.6888 125.616 74.1458 124.613 72.1406C123.624 70.1224 123.109 67.7721 123.07 65.0898V62.8633C123.07 58.5664 124.099 55.2135 126.156 52.8047C128.214 50.3828 131.085 49.1719 134.77 49.1719C137.934 49.1719 140.447 49.9531 142.309 51.5156C144.171 53.0781 145.29 55.3307 145.668 58.2734H140.824C140.277 54.849 138.292 53.1367 134.867 53.1367C132.654 53.1367 130.967 53.9375 129.809 55.5391C128.663 57.1276 128.07 59.4648 128.031 62.5508V64.7383C128.031 67.8112 128.676 70.2005 129.965 71.9062C131.267 73.599 133.07 74.4453 135.375 74.4453C137.901 74.4453 139.698 73.8724 140.766 72.7266V67.1602H134.906V63.4102H145.688V74.3086ZM149.77 67.2383C149.77 65.168 150.18 63.306 151 61.6523C151.82 59.9857 152.973 58.7096 154.457 57.8242C155.941 56.9258 157.647 56.4766 159.574 56.4766C162.426 56.4766 164.737 57.3945 166.508 59.2305C168.292 61.0664 169.255 63.5013 169.398 66.5352L169.418 67.6484C169.418 69.7318 169.014 71.5938 168.207 73.2344C167.413 74.875 166.267 76.1445 164.77 77.043C163.285 77.9414 161.566 78.3906 159.613 78.3906C156.632 78.3906 154.242 77.401 152.445 75.4219C150.661 73.4297 149.77 70.7799 149.77 67.4727V67.2383ZM154.516 67.6484C154.516 69.8229 154.965 71.5286 155.863 72.7656C156.762 73.9896 158.012 74.6016 159.613 74.6016C161.215 74.6016 162.458 73.9766 163.344 72.7266C164.242 71.4766 164.691 69.6471 164.691 67.2383C164.691 65.1029 164.229 63.4102 163.305 62.1602C162.393 60.9102 161.15 60.2852 159.574 60.2852C158.025 60.2852 156.794 60.9036 155.883 62.1406C154.971 63.3646 154.516 65.2005 154.516 67.6484ZM172.543 67.2383C172.543 65.168 172.953 63.306 173.773 61.6523C174.594 59.9857 175.746 58.7096 177.23 57.8242C178.715 56.9258 180.421 56.4766 182.348 56.4766C185.199 56.4766 187.51 57.3945 189.281 59.2305C191.065 61.0664 192.029 63.5013 192.172 66.5352L192.191 67.6484C192.191 69.7318 191.788 71.5938 190.98 73.2344C190.186 74.875 189.04 76.1445 187.543 77.043C186.059 77.9414 184.34 78.3906 182.387 78.3906C179.405 78.3906 177.016 77.401 175.219 75.4219C173.435 73.4297 172.543 70.7799 172.543 67.4727V67.2383ZM177.289 67.6484C177.289 69.8229 177.738 71.5286 178.637 72.7656C179.535 73.9896 180.785 74.6016 182.387 74.6016C183.988 74.6016 185.232 73.9766 186.117 72.7266C187.016 71.4766 187.465 69.6471 187.465 67.2383C187.465 65.1029 187.003 63.4102 186.078 62.1602C185.167 60.9102 183.923 60.2852 182.348 60.2852C180.798 60.2852 179.568 60.9036 178.656 62.1406C177.745 63.3646 177.289 65.2005 177.289 67.6484ZM195.375 67.2773C195.375 63.9961 196.143 61.3789 197.68 59.4258C199.229 57.4596 201.28 56.4766 203.832 56.4766C206.241 56.4766 208.135 57.3164 209.516 58.9961L209.73 56.8672H214.008V77.3555C214.008 80.1289 213.142 82.3164 211.41 83.918C209.691 85.5195 207.367 86.3203 204.438 86.3203C202.888 86.3203 201.371 85.9948 199.887 85.3438C198.415 84.7057 197.296 83.8659 196.527 82.8242L198.773 79.9727C200.232 81.7044 202.029 82.5703 204.164 82.5703C205.74 82.5703 206.983 82.1406 207.895 81.2812C208.806 80.4349 209.262 79.1849 209.262 77.5312V76.1055C207.895 77.6289 206.072 78.3906 203.793 78.3906C201.319 78.3906 199.294 77.4076 197.719 75.4414C196.156 73.4753 195.375 70.7539 195.375 67.2773ZM200.102 67.6875C200.102 69.8099 200.531 71.4831 201.391 72.707C202.263 73.918 203.467 74.5234 205.004 74.5234C206.918 74.5234 208.337 73.7031 209.262 72.0625V62.7656C208.363 61.1641 206.957 60.3633 205.043 60.3633C203.48 60.3633 202.263 60.9818 201.391 62.2188C200.531 63.4557 200.102 65.2786 200.102 67.6875ZM223.949 78H219.203V48H223.949V78ZM238.441 78.3906C235.434 78.3906 232.992 77.4466 231.117 75.5586C229.255 73.6576 228.324 71.1315 228.324 67.9805V67.3945C228.324 65.2852 228.728 63.4036 229.535 61.75C230.355 60.0833 231.501 58.7878 232.973 57.8633C234.444 56.9388 236.085 56.4766 237.895 56.4766C240.772 56.4766 242.992 57.3945 244.555 59.2305C246.13 61.0664 246.918 63.6641 246.918 67.0234V68.9375H233.109C233.253 70.6823 233.832 72.0625 234.848 73.0781C235.876 74.0938 237.165 74.6016 238.715 74.6016C240.889 74.6016 242.66 73.7227 244.027 71.9648L246.586 74.4062C245.74 75.6693 244.607 76.6523 243.188 77.3555C241.781 78.0456 240.199 78.3906 238.441 78.3906ZM237.875 60.2852C236.573 60.2852 235.518 60.7409 234.711 61.6523C233.917 62.5638 233.409 63.8333 233.188 65.4609H242.23V65.1094C242.126 63.5208 241.703 62.3229 240.961 61.5156C240.219 60.6953 239.19 60.2852 237.875 60.2852ZM265.98 67.4336V78H261.039V49.5625H271.918C275.095 49.5625 277.615 50.3893 279.477 52.043C281.352 53.6966 282.289 55.8841 282.289 58.6055C282.289 61.3919 281.371 63.5599 279.535 65.1094C277.712 66.6589 275.154 67.4336 271.859 67.4336H265.98ZM265.98 63.4688H271.918C273.676 63.4688 275.017 63.0586 275.941 62.2383C276.866 61.4049 277.328 60.207 277.328 58.6445C277.328 57.1081 276.859 55.8841 275.922 54.9727C274.984 54.0482 273.695 53.5729 272.055 53.5469H265.98V63.4688ZM291.215 78H286.469V48H291.215V78ZM309.027 78C308.819 77.5964 308.637 76.9388 308.48 76.0273C306.97 77.6029 305.121 78.3906 302.934 78.3906C300.811 78.3906 299.079 77.7852 297.738 76.5742C296.397 75.3633 295.727 73.8659 295.727 72.082C295.727 69.8294 296.56 68.1042 298.227 66.9062C299.906 65.6953 302.302 65.0898 305.414 65.0898H308.324V63.7031C308.324 62.6094 308.018 61.737 307.406 61.0859C306.794 60.4219 305.863 60.0898 304.613 60.0898C303.533 60.0898 302.647 60.3633 301.957 60.9102C301.267 61.444 300.922 62.1276 300.922 62.9609H296.176C296.176 61.8021 296.56 60.7214 297.328 59.7188C298.096 58.7031 299.138 57.9089 300.453 57.3359C301.781 56.763 303.259 56.4766 304.887 56.4766C307.361 56.4766 309.333 57.1016 310.805 58.3516C312.276 59.5885 313.031 61.3333 313.07 63.5859V73.1172C313.07 75.0182 313.337 76.5352 313.871 77.668V78H309.027ZM303.812 74.582C304.75 74.582 305.629 74.3542 306.449 73.8984C307.283 73.4427 307.908 72.8307 308.324 72.0625V68.0781H305.766C304.008 68.0781 302.686 68.3841 301.801 68.9961C300.915 69.6081 300.473 70.474 300.473 71.5938C300.473 72.5052 300.772 73.2344 301.371 73.7812C301.983 74.3151 302.797 74.582 303.812 74.582ZM325.121 71.2031L329.418 56.8672H334.477L326.078 81.2031C324.789 84.7578 322.602 86.5352 319.516 86.5352C318.826 86.5352 318.064 86.418 317.23 86.1836V82.5117L318.129 82.5703C319.327 82.5703 320.225 82.349 320.824 81.9062C321.436 81.4766 321.918 80.7474 322.27 79.7188L322.953 77.9023L315.531 56.8672H320.648L325.121 71.2031Z" fill="#F5F5F5"/>
</svg>
