<svg width="390" height="301" viewBox="0 0 390 301" fill="none" xmlns="http://www.w3.org/2000/svg">
<g clip-path="url(#clip0)">
<path opacity="0.18" d="M308.209 33.3788C335.909 58.5088 331.419 104.129 352.339 135.119C360.239 146.819 371.599 156.119 377.879 168.759C384.559 182.189 384.739 197.839 383.879 212.759C383.129 225.849 381.619 239.149 376.339 251.159C366.699 273.109 345.209 288.269 322.179 294.949C299.149 301.629 274.609 300.769 250.819 297.829C227.029 294.889 203.459 289.909 179.519 288.489C162.259 287.489 144.949 288.309 127.709 289.609C109.269 290.989 90.4787 292.859 72.4887 288.559C48.8787 282.919 28.4087 266.559 15.9087 245.789C3.40866 225.019 -1.43134 200.009 0.348657 175.789C1.34866 162.479 4.34866 149.139 10.7387 137.459C20.5187 119.739 37.3587 107.219 53.8687 95.5188C66.4753 86.6122 79.182 77.8355 91.9887 69.1888C114.399 54.0588 137.349 39.2788 162.629 29.6988C189.809 19.3988 213.959 20.0988 242.259 21.7588C266.519 23.1888 287.689 14.7688 308.209 33.3788Z" fill="#1E88E5"/>
<path d="M22.9897 248.289C23.889 250.104 25.243 251.654 26.9197 252.789C41.9897 264.539 61.5397 268.719 80.4797 271.299C128.41 277.839 177.02 276.569 225.37 275.299C237.53 274.969 249.85 274.629 261.52 271.209C286.74 263.819 305.57 243.319 327.58 228.949C338.93 221.549 351.26 215.709 362.48 208.109C373.7 200.509 384.04 190.729 389.03 178.109C387.8 181.209 352.3 180.999 347.78 181.269C333.98 182.099 320.17 182.719 306.36 183.269C278.41 184.429 250.45 185.329 222.54 187.069C173.91 190.069 119.48 193.069 73.7097 211.349C62.8597 215.709 17.6597 235.249 22.9897 248.289Z" fill="url(#paint0_linear)"/>
<path d="M375.062 186.659C375.091 187.104 374.982 187.546 374.749 187.926C374.516 188.306 374.171 188.604 373.762 188.779L207.452 262.539C204.942 263.656 202.15 263.977 199.452 263.459L197.842 263.149L62.6016 237.279L267.712 166.539C269.3 165.998 271 165.871 272.652 166.169L360.322 182.169L373.262 184.529C373.765 184.614 374.222 184.875 374.551 185.265C374.881 185.655 375.062 186.149 375.062 186.659Z" fill="#1E88E5"/>
<path d="M375.061 175.961V186.671L374.921 187.591C374.821 187.861 374.667 188.106 374.467 188.313C374.268 188.52 374.027 188.682 373.761 188.791L207.451 262.541C204.941 263.658 202.149 263.979 199.451 263.461L197.841 263.151L196.211 252.151L360.321 182.241L375.061 175.961Z" fill="white"/>
<path d="M375.389 175.961V186.671L375.249 187.591C375.148 187.86 374.993 188.105 374.793 188.311C374.594 188.518 374.354 188.681 374.089 188.791L207.779 262.541C205.269 263.657 202.477 263.979 199.779 263.461L198.169 263.151L196.539 252.151L360.639 182.241L375.389 175.961Z" fill="url(#paint1_linear)"/>
<path d="M59.5117 225.59L62.6017 237.27L199.442 263.41L197.272 248.42L59.5117 225.59Z" fill="white"/>
<path d="M59.8398 225.59L62.9198 237.27L199.77 263.41L197.59 248.42L59.8398 225.59Z" fill="url(#paint2_linear)"/>
<path d="M47.1701 217.389L22.7301 72.2589C22.2553 69.4417 22.8215 66.548 24.3228 64.1175C25.8242 61.6869 28.1584 59.8854 30.8901 59.0489L221.99 0.538886C223.559 0.0548509 225.211 -0.0956914 226.842 0.0969311C228.472 0.289554 230.044 0.821081 231.456 1.65736C232.869 2.49365 234.091 3.61619 235.044 4.95287C235.997 6.28954 236.66 7.8108 236.99 9.41889L265.27 146.229C265.851 149.035 265.388 151.956 263.969 154.445C262.549 156.934 260.271 158.82 257.56 159.749L62.5901 226.539C60.977 227.094 59.2625 227.291 57.5656 227.118C55.8686 226.944 54.2297 226.403 52.7627 225.532C51.2956 224.662 50.0355 223.482 49.0698 222.076C48.1041 220.67 47.4559 219.071 47.1701 217.389V217.389Z" fill="#1E88E5"/>
<path d="M47.1701 217.389L22.7301 72.2589C22.2553 69.4417 22.8215 66.548 24.3228 64.1175C25.8242 61.6869 28.1584 59.8854 30.8901 59.0489L221.99 0.538886C223.559 0.0548509 225.211 -0.0956914 226.842 0.0969311C228.472 0.289554 230.044 0.821081 231.456 1.65736C232.869 2.49365 234.091 3.61619 235.044 4.95287C235.997 6.28954 236.66 7.8108 236.99 9.41889L265.27 146.229C265.851 149.035 265.388 151.956 263.969 154.445C262.549 156.934 260.271 158.82 257.56 159.749L62.5901 226.539C60.977 227.094 59.2625 227.291 57.5656 227.118C55.8686 226.944 54.2297 226.403 52.7627 225.532C51.2956 224.662 50.0355 223.482 49.0698 222.076C48.1041 220.67 47.4559 219.071 47.1701 217.389V217.389Z" fill="white"/>
<path d="M47.1701 217.389L22.7301 72.2589C22.2553 69.4417 22.8215 66.548 24.3228 64.1175C25.8242 61.6869 28.1584 59.8854 30.8901 59.0489L221.99 0.538886C223.559 0.0548509 225.211 -0.0956914 226.842 0.0969311C228.472 0.289554 230.044 0.821081 231.456 1.65736C232.869 2.49365 234.091 3.61619 235.044 4.95287C235.997 6.28954 236.66 7.8108 236.99 9.41889L265.27 146.229C265.851 149.035 265.388 151.956 263.969 154.445C262.549 156.934 260.271 158.82 257.56 159.749L62.5901 226.539C60.977 227.094 59.2625 227.291 57.5656 227.118C55.8686 226.944 54.2297 226.403 52.7627 225.532C51.2956 224.662 50.0355 223.482 49.0698 222.076C48.1041 220.67 47.4559 219.071 47.1701 217.389V217.389Z" fill="url(#paint3_linear)"/>
<path d="M50.9891 217.389L26.5791 72.2589C26.1021 69.4415 26.6673 66.5468 28.169 64.1157C29.6707 61.6847 32.0062 59.8835 34.7391 59.0489L225.879 0.538886C227.448 0.0548509 229.1 -0.0956914 230.731 0.0969311C232.361 0.289554 233.933 0.821081 235.345 1.65736C236.758 2.49365 237.98 3.61619 238.933 4.95287C239.886 6.28954 240.549 7.8108 240.879 9.41889L269.159 146.229C269.74 149.035 269.277 151.956 267.858 154.445C266.438 156.934 264.16 158.82 261.449 159.749L66.4391 226.539C64.8242 227.099 63.1067 227.301 61.4061 227.129C59.7055 226.958 58.0626 226.418 56.5919 225.547C55.1213 224.676 53.8581 223.495 52.8905 222.086C51.9229 220.677 51.274 219.074 50.9891 217.389V217.389Z" fill="white"/>
<path d="M50.9891 217.389L26.5791 72.2589C26.1021 69.4415 26.6673 66.5468 28.169 64.1157C29.6707 61.6847 32.0062 59.8835 34.7391 59.0489L225.879 0.538886C227.448 0.0548509 229.1 -0.0956914 230.731 0.0969311C232.361 0.289554 233.933 0.821081 235.345 1.65736C236.758 2.49365 237.98 3.61619 238.933 4.95287C239.886 6.28954 240.549 7.8108 240.879 9.41889L269.159 146.229C269.74 149.035 269.277 151.956 267.858 154.445C266.438 156.934 264.16 158.82 261.449 159.749L66.4391 226.539C64.8242 227.099 63.1067 227.301 61.4061 227.129C59.7055 226.958 58.0626 226.418 56.5919 225.547C55.1213 224.676 53.8581 223.495 52.8905 222.086C51.9229 220.677 51.274 219.074 50.9891 217.389V217.389Z" fill="url(#paint4_linear)"/>
<path d="M55.371 209.059L32.281 72.8691C31.8298 70.2184 32.3651 67.4943 33.7856 65.2115C35.2062 62.9286 37.4137 61.2451 39.991 60.4791L220.571 5.53907C222.046 5.08472 223.6 4.94275 225.133 5.12223C226.666 5.30171 228.145 5.79869 229.475 6.58148C230.806 7.36428 231.958 8.4157 232.86 9.66872C233.761 10.9217 234.392 12.3489 234.711 13.8591L261.431 142.229C261.973 144.868 261.533 147.614 260.192 149.951C258.851 152.288 256.703 154.055 254.151 154.919L69.991 217.669C68.4664 218.199 66.8447 218.391 65.2385 218.232C63.6323 218.072 62.0799 217.566 60.6891 216.746C59.2983 215.927 58.1022 214.816 57.1839 213.488C56.2656 212.161 55.647 210.649 55.371 209.059V209.059Z" fill="white"/>
<path d="M180.78 164.408L176.68 160.218C195.42 141.888 204.55 116.418 203.84 84.5184C203.498 69.9425 201.194 55.4791 196.99 41.5184L202.54 39.6484C206.964 54.1189 209.374 69.1301 209.7 84.2584C210.47 117.408 200.48 145.138 180.78 164.408Z" fill="#1E88E5"/>
<path d="M62.5898 226.541L199.44 252.681C202.138 253.189 204.927 252.868 207.44 251.761L373.75 178.051C374.18 177.858 374.537 177.533 374.77 177.123C375.002 176.713 375.097 176.24 375.041 175.772C374.985 175.304 374.781 174.866 374.459 174.522C374.137 174.178 373.713 173.947 373.25 173.861L272.65 155.541C270.998 155.24 269.296 155.371 267.71 155.921L62.5898 226.541Z" fill="white"/>
<path d="M88.4688 223.209L270.319 159.789L314.679 166.049L150.059 233.109L88.4688 223.209Z" fill="#1E88E5"/>
<path d="M201.57 214.85L277.97 183.25L321.75 193.43L247.59 227.21L201.57 214.85Z" fill="#1E88E5"/>
<path d="M88.4688 223.209L270.319 159.789L314.679 166.049L150.059 233.109L88.4688 223.209Z" fill="url(#paint5_linear)"/>
<path d="M201.57 214.85L277.97 183.25L321.75 193.43L247.59 227.21L201.57 214.85Z" fill="url(#paint6_linear)"/>
<path opacity="0.38" d="M106.889 5.07812C65.5989 5.07812 32.1289 44.9681 32.1289 94.1681C32.1289 143.368 65.5989 183.248 106.889 183.248C148.179 183.248 181.669 143.368 181.669 94.1681C181.669 44.9681 148.189 5.07812 106.889 5.07812ZM106.889 156.538C88.9889 156.538 73.1789 145.828 63.7489 129.478L50.1489 133.208C50.1489 133.208 32.5589 73.2681 69.1289 40.5381L74.6989 44.9681C83.5789 36.7081 94.7489 31.7781 106.889 31.7781C135.809 31.7781 159.249 59.7081 159.249 94.1681C159.249 128.628 135.809 156.538 106.889 156.538Z" fill="#1E88E5"/>
<path opacity="0.54" d="M132.461 18.6381L141.111 5.07812C141.111 5.07812 170.741 24.5381 178.731 45.9481L164.991 53.8381C164.991 53.8381 151.531 30.7381 132.461 18.6381Z" fill="#1E88E5"/>
<path opacity="0.54" d="M63.9911 94.1691C63.8889 105.767 67.3135 117.122 73.8111 126.729L63.8111 129.479L50.2111 133.209C50.2111 133.209 32.5611 73.2691 69.1311 40.5391L74.7011 44.9691L83.0911 51.6091C71.5711 60.7691 63.9911 76.4091 63.9911 94.1691Z" fill="#1E88E5"/>
<path opacity="0.82" d="M334.651 94.0509C334.68 96.9819 333.664 99.8272 331.785 102.077C329.906 104.326 327.287 105.833 324.398 106.327C321.509 106.82 318.539 106.268 316.019 104.77C313.5 103.272 311.597 100.925 310.651 98.1509C310.181 96.8351 309.941 95.4482 309.941 94.0509C309.941 90.7782 311.241 87.6394 313.556 85.3252C315.87 83.011 319.009 81.7109 322.281 81.7109C325.554 81.7109 328.693 83.011 331.007 85.3252C333.321 87.6394 334.621 90.7782 334.621 94.0509H334.651Z" fill="#1E88E5"/>
<path opacity="0.55" d="M330.929 88.6914C330.931 91.0387 330.263 93.3378 329.003 95.3184C327.743 97.2991 325.944 98.879 323.817 99.8725C321.691 100.866 319.325 101.232 316.997 100.927C314.67 100.622 312.478 99.6591 310.679 98.1514C310.209 96.8356 309.969 95.4487 309.969 94.0514C309.964 91.7015 310.63 89.399 311.888 87.4142C313.146 85.4294 314.944 83.8447 317.071 82.8462C319.198 81.8476 321.566 81.4768 323.897 81.777C326.227 82.0773 328.424 83.0363 330.229 84.5414C330.701 85.8737 330.938 87.2779 330.929 88.6914Z" fill="white"/>
<path opacity="0.82" d="M303.76 110.432C303.755 111.889 303.235 113.297 302.292 114.408C301.348 115.518 300.042 116.258 298.605 116.498C297.167 116.738 295.692 116.461 294.439 115.716C293.186 114.972 292.237 113.809 291.76 112.432C291.531 111.79 291.412 111.113 291.41 110.432C291.41 108.795 292.06 107.226 293.217 106.069C294.374 104.912 295.944 104.262 297.58 104.262C299.217 104.262 300.786 104.912 301.943 106.069C303.1 107.226 303.75 108.795 303.75 110.432H303.76Z" fill="#1E88E5"/>
<path opacity="0.55" d="M301.899 107.761C301.899 108.571 301.739 109.373 301.429 110.121C301.119 110.869 300.664 111.548 300.091 112.12C299.518 112.692 298.838 113.146 298.089 113.455C297.341 113.764 296.539 113.922 295.729 113.921C294.266 113.939 292.845 113.427 291.729 112.481C291.499 111.839 291.381 111.163 291.379 110.481C291.379 109.307 291.714 108.158 292.345 107.168C292.975 106.178 293.875 105.388 294.938 104.892C296.002 104.395 297.185 104.212 298.349 104.365C299.513 104.517 300.609 104.998 301.509 105.751C301.752 106.394 301.884 107.074 301.899 107.761V107.761Z" fill="white"/>
<path opacity="0.82" d="M300.418 72.1916C300.419 73.6882 299.891 75.1368 298.926 76.2812C297.962 77.4256 296.624 78.192 295.149 78.4446C293.674 78.6972 292.157 78.4199 290.866 77.6617C289.576 76.9034 288.596 75.7132 288.098 74.3016C287.856 73.6247 287.734 72.9105 287.738 72.1916C287.738 70.5101 288.406 68.8975 289.595 67.7085C290.784 66.5195 292.397 65.8516 294.078 65.8516C295.76 65.8516 297.372 66.5195 298.561 67.7085C299.75 68.8975 300.418 70.5101 300.418 72.1916V72.1916Z" fill="#1E88E5"/>
<path opacity="0.55" d="M298.508 69.4416C298.508 70.6478 298.164 71.8289 297.516 72.8462C296.868 73.8636 295.943 74.675 294.85 75.1853C293.757 75.6955 292.542 75.8834 291.346 75.7269C290.15 75.5703 289.023 75.0759 288.098 74.3016C287.856 73.6247 287.734 72.9106 287.738 72.1916C287.738 70.5101 288.406 68.8975 289.595 67.7086C290.784 66.5196 292.397 65.8516 294.078 65.8516C295.568 65.8459 297.011 66.3705 298.148 67.3316C298.391 68.0085 298.513 68.7226 298.508 69.4416V69.4416Z" fill="white"/>
<g opacity="0.82">
<path opacity="0.82" d="M296.62 108.302L284.93 88.2417L297.96 82.6617L294.7 76.7317L295.56 76.2617L299.33 83.1417L286.33 88.7117L297.46 107.812L296.62 108.302Z" fill="#1E88E5"/>
</g>
<path opacity="0.82" d="M113.782 103.141C112.546 104.415 110.912 105.23 109.15 105.45C107.389 105.67 105.605 105.283 104.093 104.352C102.581 103.421 101.432 102.002 100.836 100.33C100.24 98.658 100.232 96.8324 100.813 95.1551C101.395 93.4777 102.531 92.0489 104.035 91.1047C105.538 90.1606 107.319 89.7575 109.082 89.9622C110.846 90.1668 112.486 90.967 113.734 92.2304C114.981 93.4938 115.76 95.1448 115.942 96.9108C116.059 98.044 115.927 99.1892 115.553 100.266C115.18 101.342 114.575 102.324 113.782 103.141V103.141Z" fill="#1E88E5"/>
<path opacity="0.55" d="M114.449 99.0789C113.416 100.141 112.102 100.887 110.66 101.228C109.218 101.569 107.709 101.491 106.31 101.004C104.911 100.516 103.68 99.6397 102.762 98.4768C101.845 97.3138 101.278 95.9129 101.129 94.4389C101.829 92.8632 103.032 91.5645 104.55 90.7469C106.068 89.9293 107.814 89.639 109.515 89.9217C111.216 90.2044 112.774 91.044 113.946 92.3087C115.118 93.5734 115.837 95.1915 115.989 96.9089C115.609 97.7181 115.087 98.453 114.449 99.0789V99.0789Z" fill="white"/>
<path opacity="0.82" d="M92.6019 96.9513C91.9591 97.6045 91.1068 98.0106 90.1946 98.0981C89.2823 98.1857 88.3684 97.9492 87.6131 97.4302C86.8578 96.9112 86.3094 96.1427 86.0641 95.2597C85.8189 94.3767 85.8924 93.4355 86.2719 92.6013C86.4493 92.2092 86.6928 91.8507 86.9919 91.5413C87.7119 90.8013 88.6964 90.3777 89.7288 90.3636C90.7612 90.3496 91.7569 90.7462 92.4969 91.4663C93.2368 92.1863 93.6604 93.1708 93.6745 94.2032C93.6885 95.2356 93.2919 96.2313 92.5719 96.9713L92.6019 96.9513Z" fill="#1E88E5"/>
<path opacity="0.55" d="M92.9295 94.9217C92.4133 95.453 91.7561 95.8258 91.0352 95.9963C90.3143 96.1668 89.5597 96.1279 88.8602 95.8842C88.1606 95.6405 87.5452 95.2022 87.0863 94.6207C86.6274 94.0392 86.344 93.3388 86.2695 92.6017C86.4469 92.2097 86.6905 91.8511 86.9895 91.5417C87.5075 91.0146 88.1646 90.6454 88.8842 90.4773C89.6039 90.3091 90.3565 90.3489 91.0544 90.5921C91.7523 90.8352 92.3668 91.2716 92.8263 91.8505C93.2857 92.4293 93.5712 93.1269 93.6495 93.8617C93.4698 94.2524 93.2265 94.6106 92.9295 94.9217Z" fill="white"/>
<path opacity="0.82" d="M107.92 78.1909C107.262 78.8701 106.385 79.2943 105.444 79.3882C104.503 79.4821 103.559 79.2396 102.78 78.7038C102.001 78.168 101.437 77.3736 101.188 76.4614C100.939 75.5492 101.021 74.5783 101.42 73.7209C101.604 73.3078 101.861 72.9317 102.18 72.6109C102.547 72.2344 102.984 71.9339 103.468 71.7265C103.951 71.5192 104.47 71.4092 104.996 71.4026C105.521 71.3961 106.043 71.4933 106.531 71.6887C107.019 71.884 107.464 72.1736 107.84 72.5409C108.599 73.2801 109.033 74.2902 109.048 75.3494C109.063 76.4086 108.658 77.4305 107.92 78.1909V78.1909Z" fill="#1E88E5"/>
<path opacity="0.55" d="M108.262 76.1109C107.896 76.4881 107.459 76.7894 106.976 76.9976C106.493 77.2058 105.974 77.3168 105.448 77.3242C104.923 77.3317 104.401 77.2354 103.912 77.0409C103.424 76.8465 102.979 76.5576 102.602 76.1909C101.926 75.5351 101.507 74.6588 101.422 73.7209C101.606 73.3078 101.863 72.9317 102.182 72.6109C102.549 72.2344 102.986 71.9339 103.469 71.7265C103.952 71.5192 104.472 71.4092 104.997 71.4026C105.523 71.3961 106.045 71.4933 106.533 71.6887C107.021 71.884 107.466 72.1736 107.842 72.5409C108.498 73.1992 108.905 74.0654 108.992 74.9909C108.813 75.4026 108.566 75.7812 108.262 76.1109V76.1109Z" fill="white"/>
<path opacity="0.82" d="M90.6094 92.9086L94.0594 79.0386L102.399 82.2486L103.629 77.8086" stroke="#1E88E5" stroke-width="0.62" stroke-miterlimit="10"/>
<path d="M105.229 200.29C103.229 200.29 101.189 200.193 99.1094 200C81.6794 198.4 65.9894 190 57.1094 177.66L61.8794 174.25C69.7594 185.25 83.8794 192.72 99.6394 194.17C108.066 194.987 116.57 193.95 124.553 191.13C132.536 188.311 139.805 183.778 145.849 177.85L149.919 182.07C137.978 193.752 121.935 200.293 105.229 200.29V200.29Z" fill="#1E88E5"/>
</g>
<defs>
<linearGradient id="paint0_linear" x1="172.09" y1="94.5294" x2="268.88" y2="433.279" gradientUnits="userSpaceOnUse">
<stop offset="0.01"/>
<stop offset="0.08" stop-opacity="0.69"/>
<stop offset="0.21" stop-opacity="0.32"/>
<stop offset="1" stop-opacity="0"/>
</linearGradient>
<linearGradient id="paint1_linear" x1="52029.1" y1="17070.5" x2="52678.2" y2="26283.4" gradientUnits="userSpaceOnUse">
<stop offset="0.01"/>
<stop offset="0.08" stop-opacity="0.69"/>
<stop offset="0.21" stop-opacity="0.32"/>
<stop offset="1" stop-opacity="0"/>
</linearGradient>
<linearGradient id="paint2_linear" x1="19258.2" y1="7846.32" x2="19031.1" y2="12732.3" gradientUnits="userSpaceOnUse">
<stop offset="0.01"/>
<stop offset="0.08" stop-opacity="0.69"/>
<stop offset="0.21" stop-opacity="0.32"/>
<stop offset="1" stop-opacity="0"/>
</linearGradient>
<linearGradient id="paint3_linear" x1="22.5601" y1="113.609" x2="265.53" y2="113.609" gradientUnits="userSpaceOnUse">
<stop offset="0.01"/>
<stop offset="0.13" stop-opacity="0.69"/>
<stop offset="0.25" stop-opacity="0.32"/>
<stop offset="1" stop-opacity="0"/>
</linearGradient>
<linearGradient id="paint4_linear" x1="17597" y1="6849.28" x2="131208" y2="142134" gradientUnits="userSpaceOnUse">
<stop offset="0.01"/>
<stop offset="0.13" stop-opacity="0.69"/>
<stop offset="0.25" stop-opacity="0.32"/>
<stop offset="1" stop-opacity="0"/>
</linearGradient>
<linearGradient id="paint5_linear" x1="26541.5" y1="9569.68" x2="57944.5" y2="85448.9" gradientUnits="userSpaceOnUse">
<stop offset="0.01"/>
<stop offset="0.08" stop-opacity="0.69"/>
<stop offset="0.21" stop-opacity="0.32"/>
<stop offset="1" stop-opacity="0"/>
</linearGradient>
<linearGradient id="paint6_linear" x1="16446.3" y1="4802.13" x2="36877.1" y2="48546.5" gradientUnits="userSpaceOnUse">
<stop offset="0.01"/>
<stop offset="0.08" stop-opacity="0.69"/>
<stop offset="0.21" stop-opacity="0.32"/>
<stop offset="1" stop-opacity="0"/>
</linearGradient>
<clipPath id="clip0">
<rect width="389.03" height="300.07" fill="white"/>
</clipPath>
</defs>
</svg>
