<svg width="422" height="323" viewBox="0 0 422 323" fill="none" xmlns="http://www.w3.org/2000/svg">
<g clip-path="url(#clip0)">
<path opacity="0.18" d="M394.012 88.7002C376.822 69.1702 354.792 54.6402 333.012 40.3502C306.682 23.0502 279.202 5.30024 248.012 1.01024C218.222 -3.08976 187.802 5.69024 161.402 20.1002C135.002 34.5102 112.012 54.3102 89.2218 73.9502L35.5918 120.21C24.3118 129.94 12.7118 140.07 6.29181 153.51C0.841815 164.91 -0.448185 177.95 0.591815 190.51C1.84818 204.823 5.94936 218.741 12.6549 231.448C19.3604 244.155 28.5354 255.395 39.6418 264.51C55.2218 277.14 74.0118 285.11 92.7018 292.45C127.042 305.89 162.442 317.75 199.172 321.05C238.392 324.58 277.752 318.23 316.612 311.9C364.332 304.13 391.712 283.84 399.612 236.83C403.902 211.39 417.812 188.34 420.732 162.83C423.902 135.36 411.782 108.93 394.012 88.7002Z" fill="#1E88E5"/>
<path d="M374.45 32.8984H84.5098C77.0982 32.8984 71.0898 38.9068 71.0898 46.3184V243.338C71.0898 250.75 77.0982 256.758 84.5098 256.758H374.45C381.862 256.758 387.87 250.75 387.87 243.338V46.3184C387.87 38.9068 381.862 32.8984 374.45 32.8984Z" fill="#1E88E5"/>
<path d="M364.739 40.5117H94.2889C87.4351 40.5117 81.8789 46.0679 81.8789 52.9217V233.562C81.8789 240.416 87.4351 245.972 94.2889 245.972H364.739C371.593 245.972 377.149 240.416 377.149 233.562V52.9217C377.149 46.0679 371.593 40.5117 364.739 40.5117Z" fill="white"/>
<path d="M267.491 221.561L221.031 198.331H72.0312V144.691H285.801L266.791 183.081L267.491 221.561Z" fill="url(#paint0_linear)"/>
<path d="M285.799 67.1203V171.83C285.799 175.491 284.347 179.003 281.762 181.595C279.177 184.188 275.67 185.65 272.009 185.66H58.8586C57.0439 185.66 55.2469 185.302 53.5707 184.607C51.8944 183.912 50.3718 182.892 49.0899 181.608C47.8081 180.323 46.7922 178.798 46.1005 177.121C45.4087 175.443 45.0547 173.645 45.0586 171.83V67.1203C45.0586 63.4603 46.5126 59.9502 49.1006 57.3622C51.6886 54.7742 55.1986 53.3203 58.8586 53.3203H272.009C275.665 53.3282 279.17 54.785 281.754 57.3716C284.339 59.9582 285.793 63.4637 285.799 67.1203Z" fill="#1E88E5"/>
<path d="M165.222 80.171C164.6 80.3946 163.916 80.3684 163.314 80.098C162.712 79.8275 162.238 79.3339 161.992 78.721L159.572 72.291C158.88 70.535 157.525 69.122 155.799 68.3577C154.073 67.5934 152.116 67.5392 150.351 68.2069C148.586 68.8746 147.154 70.2105 146.367 71.9256C145.579 73.6406 145.498 75.5968 146.142 77.371L149.492 86.221C149.546 86.367 149.586 86.5176 149.612 86.671H144.312L141.462 79.141C140.383 76.1348 140.528 72.8251 141.866 69.9249C143.205 67.0248 145.628 64.7663 148.615 63.636C151.603 62.5056 154.914 62.5938 157.837 63.8816C160.76 65.1694 163.06 67.5538 164.242 70.521L166.672 76.941C166.789 77.2483 166.845 77.5757 166.835 77.9044C166.826 78.2332 166.752 78.5569 166.617 78.8569C166.482 79.157 166.29 79.4275 166.05 79.653C165.811 79.8785 165.529 80.0545 165.222 80.171V80.171Z" fill="white"/>
<path d="M394.15 254.648H57.77C51.1315 254.648 45.75 260.03 45.75 266.668V267.968C45.75 274.607 51.1315 279.988 57.77 279.988H394.15C400.788 279.988 406.17 274.607 406.17 267.968V266.668C406.17 260.03 400.788 254.648 394.15 254.648Z" fill="#1E88E5"/>
<path d="M394.15 254.648H57.77C51.1315 254.648 45.75 260.03 45.75 266.668V267.968C45.75 274.607 51.1315 279.988 57.77 279.988H394.15C400.788 279.988 406.17 274.607 406.17 267.968V266.668C406.17 260.03 400.788 254.648 394.15 254.648Z" fill="url(#paint1_linear)"/>
<path d="M225.25 184.959L267.49 221.559V176.859L225.25 184.959Z" fill="#1E88E5"/>
<path d="M245.58 127.699H82.44C79.0214 127.699 76.25 130.471 76.25 133.889V151.549C76.25 154.968 79.0214 157.739 82.44 157.739H245.58C248.999 157.739 251.77 154.968 251.77 151.549V133.889C251.77 130.471 248.999 127.699 245.58 127.699Z" fill="white"/>
<path d="M173.041 86.7305H140.191V117.08H173.041V86.7305Z" fill="url(#paint2_linear)"/>
<path d="M172.998 86.6719H152.398V117.022H172.998V86.6719Z" fill="url(#paint3_linear)"/>
<path d="M155.83 100.888C155.83 100.888 152.59 98.1883 155.42 95.8883C158.25 93.5883 161.42 98.3883 158.42 100.888L160.53 106.518H153.41L155.83 100.888Z" fill="url(#paint4_linear)"/>
<path d="M101.379 148.29C104.842 148.29 107.649 145.483 107.649 142.02C107.649 138.557 104.842 135.75 101.379 135.75C97.9165 135.75 95.1094 138.557 95.1094 142.02C95.1094 145.483 97.9165 148.29 101.379 148.29Z" fill="black"/>
<path d="M118.29 148.29C121.752 148.29 124.56 145.483 124.56 142.02C124.56 138.557 121.752 135.75 118.29 135.75C114.827 135.75 112.02 138.557 112.02 142.02C112.02 145.483 114.827 148.29 118.29 148.29Z" fill="black"/>
<path d="M135.2 148.29C138.663 148.29 141.47 145.483 141.47 142.02C141.47 138.557 138.663 135.75 135.2 135.75C131.737 135.75 128.93 138.557 128.93 142.02C128.93 145.483 131.737 148.29 135.2 148.29Z" fill="black"/>
<path d="M152.11 148.29C155.573 148.29 158.38 145.483 158.38 142.02C158.38 138.557 155.573 135.75 152.11 135.75C148.647 135.75 145.84 138.557 145.84 142.02C145.84 145.483 148.647 148.29 152.11 148.29Z" fill="black"/>
<path d="M170.348 148.29C173.811 148.29 176.618 145.483 176.618 142.02C176.618 138.557 173.811 135.75 170.348 135.75C166.885 135.75 164.078 138.557 164.078 142.02C164.078 145.483 166.885 148.29 170.348 148.29Z" fill="black"/>
<path d="M187.258 148.29C190.721 148.29 193.528 145.483 193.528 142.02C193.528 138.557 190.721 135.75 187.258 135.75C183.795 135.75 180.988 138.557 180.988 142.02C180.988 145.483 183.795 148.29 187.258 148.29Z" fill="black"/>
<path d="M204.168 148.29C207.631 148.29 210.438 145.483 210.438 142.02C210.438 138.557 207.631 135.75 204.168 135.75C200.706 135.75 197.898 138.557 197.898 142.02C197.898 145.483 200.706 148.29 204.168 148.29Z" fill="black"/>
<path d="M221.09 148.29C224.553 148.29 227.36 145.483 227.36 142.02C227.36 138.557 224.553 135.75 221.09 135.75C217.627 135.75 214.82 138.557 214.82 142.02C214.82 145.483 217.627 148.29 221.09 148.29Z" fill="black"/>
<path d="M53.4882 43.5313C52.5158 43.5308 51.5646 43.2468 50.7511 42.7139C49.9376 42.1811 49.2972 41.4226 48.9082 40.5313L38.1082 15.6513C37.8456 15.0486 37.7042 14.4 37.6922 13.7426C37.6803 13.0852 37.7979 12.4319 38.0384 11.8199C38.2789 11.208 38.6376 10.6494 39.0939 10.1761C39.5503 9.70277 40.0954 9.32398 40.6982 9.06134C41.301 8.79869 41.9496 8.65734 42.607 8.64536C43.2644 8.63338 43.9177 8.751 44.5296 8.9915C45.1416 9.232 45.7001 9.59068 46.1735 10.0471C46.6468 10.5034 47.0256 11.0486 47.2882 11.6513L58.0782 36.5413C58.4106 37.3028 58.5479 38.1351 58.4778 38.963C58.4078 39.7909 58.1325 40.5883 57.6769 41.2831C57.2213 41.9779 56.5998 42.5482 55.8684 42.9425C55.1371 43.3367 54.3191 43.5426 53.4882 43.5413V43.5313Z" fill="#1E88E5"/>
<path d="M5.01147 77.6415C3.68539 77.6853 2.39624 77.2005 1.42761 76.2937C0.458988 75.387 -0.109764 74.1326 -0.153525 72.8065C-0.197286 71.4805 0.28753 70.1913 1.19427 69.2227C2.10101 68.2541 3.35539 67.6853 4.68147 67.6415L31.7315 65.8315C33.0576 65.7427 34.3646 66.1843 35.3651 67.0591C36.3656 67.934 36.9776 69.1705 37.0665 70.4965C37.1553 71.8226 36.7137 73.1297 35.8389 74.1302C34.964 75.1307 33.7276 75.7427 32.4015 75.8315L5.34147 77.6315L5.01147 77.6415Z" fill="#1E88E5"/>
<path d="M33.7818 53.0286C32.7932 53.0256 31.8283 52.726 31.0118 52.1686L8.54177 36.9286C7.46701 36.1743 6.73209 35.0275 6.49575 33.736C6.2594 32.4444 6.5406 31.1116 7.27861 30.0256C8.01662 28.9396 9.1522 28.1875 10.4401 27.9317C11.728 27.676 13.0648 27.937 14.1618 28.6586L36.5918 43.8986C37.4738 44.5005 38.1399 45.3689 38.4927 46.3767C38.8455 47.3846 38.8663 48.4789 38.5522 49.4994C38.2381 50.52 37.6056 51.4132 36.7471 52.0482C35.8887 52.6833 34.8496 53.0268 33.7818 53.0286V53.0286Z" fill="#1E88E5"/>
<path d="M263.409 254.879H190.289V262.389H263.409V254.879Z" fill="url(#paint5_linear)"/>
</g>
<defs>
<linearGradient id="paint0_linear" x1="170.511" y1="103.771" x2="205.811" y2="388.401" gradientUnits="userSpaceOnUse">
<stop stop-opacity="0"/>
<stop offset="0.99"/>
</linearGradient>
<linearGradient id="paint1_linear" x1="81619.6" y1="7372.91" x2="81617.1" y2="6051.98" gradientUnits="userSpaceOnUse">
<stop stop-opacity="0"/>
<stop offset="0.99"/>
</linearGradient>
<linearGradient id="paint2_linear" x1="6795.93" y1="2300.46" x2="3906.29" y2="4270.3" gradientUnits="userSpaceOnUse">
<stop stop-opacity="0"/>
<stop offset="0.99"/>
</linearGradient>
<linearGradient id="paint3_linear" x1="4228.11" y1="2505.87" x2="2513.15" y2="3238.96" gradientUnits="userSpaceOnUse">
<stop stop-opacity="0"/>
<stop offset="0.99"/>
</linearGradient>
<linearGradient id="paint4_linear" x1="1286.13" y1="1635.99" x2="1280.64" y2="1481.6" gradientUnits="userSpaceOnUse">
<stop stop-opacity="0"/>
<stop offset="0.99"/>
</linearGradient>
<linearGradient id="paint5_linear" x1="16790.7" y1="2042.19" x2="16790.4" y2="2468.86" gradientUnits="userSpaceOnUse">
<stop stop-opacity="0"/>
<stop offset="0.99"/>
</linearGradient>
<clipPath id="clip0">
<rect width="421.26" height="322.03" fill="white"/>
</clipPath>
</defs>
</svg>
