<svg width="380" height="325" viewBox="0 0 380 325" fill="none" xmlns="http://www.w3.org/2000/svg">
<g clip-path="url(#clip0)">
<path opacity="0.18" d="M243.772 1.09003C324.772 -9.11997 352.552 55.18 357.182 77.78C367.962 130.5 353.412 150.34 352.382 170.45C351.282 192.09 379.382 206.54 379.382 228.23C379.25 251.62 370.006 274.037 353.612 290.72C330.562 313.96 296.462 322.72 263.782 324.43C231.102 326.14 198.312 321.87 165.622 323.63C134.672 325.29 -24.0683 294.72 3.12169 151C10.5317 111.78 73.9417 101.48 107.242 75.18C133.972 54 158.282 11.88 243.772 1.09003Z" fill="#1E88E5"/>
<path opacity="0.35" d="M342.367 277.809C343.185 256.617 279.358 236.948 199.805 233.878C120.253 230.808 55.0994 245.499 54.2816 266.691C53.4638 287.883 117.291 307.551 196.844 310.621C276.396 313.691 341.549 299.001 342.367 277.809Z" fill="#1E88E5"/>
<path d="M174.66 38.939V249.599C174.66 258.699 182.54 266.859 192.25 267.809L286.25 277.059C295.95 278.009 303.83 271.409 303.83 262.299V51.639C303.83 42.529 295.95 34.369 286.25 33.419L192.25 24.169C182.54 23.219 174.66 29.829 174.66 38.939ZM183.66 39.939C183.66 34.329 188.51 30.249 194.5 30.839L207.74 32.149V33.389C207.835 35.2231 208.589 36.9612 209.865 38.2827C211.14 39.6041 212.85 40.4197 214.68 40.579L265.18 45.579C269.01 45.949 272.11 43.349 272.11 39.759V38.519L285.79 39.859C291.79 40.449 296.63 45.479 296.63 51.089V261.159C296.63 266.769 291.78 270.839 285.79 270.249L194.5 261.249C188.5 260.659 183.66 255.639 183.66 250.019V39.939Z" fill="#1E88E5"/>
<path d="M170.238 42.8292V253.489C170.238 262.589 178.118 270.749 187.828 271.699L281.828 280.949C291.528 281.899 299.408 275.299 299.408 266.189V55.5292C299.408 46.4192 291.528 38.2592 281.828 37.3092L187.828 28.0692C178.118 27.1092 170.238 33.7192 170.238 42.8292ZM179.238 43.8292C179.238 38.2192 184.088 34.1392 190.078 34.7292L203.318 36.0392V37.2792C203.413 39.1134 204.167 40.8515 205.443 42.1729C206.718 43.4944 208.429 44.3099 210.258 44.4692L260.758 49.4692C264.588 49.8392 267.688 47.2392 267.688 43.6492V42.4092L281.358 43.7492C287.358 44.3392 292.198 49.3692 292.198 54.9792V265.049C292.198 270.659 287.348 274.729 281.358 274.139L190.068 265.139C184.068 264.549 179.228 259.529 179.228 253.909L179.238 43.8292Z" fill="white"/>
<path d="M179.211 43.8716V253.932C179.211 259.552 184.061 264.572 190.051 265.162L281.341 274.162C287.341 274.752 292.181 270.682 292.181 265.072V55.0016C292.181 49.3916 287.331 44.3616 281.341 43.7716L267.661 42.4116V43.6616C267.661 47.2516 264.561 49.8516 260.731 49.4816L210.231 44.4816C208.401 44.3223 206.691 43.5067 205.415 42.1853C204.14 40.8639 203.385 39.1257 203.291 37.2916V36.0816L190.051 34.7716C184.061 34.1816 179.211 38.2616 179.211 43.8716Z" stroke="url(#paint0_linear)" stroke-width="0.64" stroke-miterlimit="10"/>
<path d="M179.211 43.8716V253.932C179.211 259.552 184.061 264.572 190.051 265.162L281.341 274.162C287.341 274.752 292.181 270.682 292.181 265.072V55.0016C292.181 49.3916 287.331 44.3616 281.341 43.7716L267.661 42.4116V43.6616C267.661 47.2516 264.561 49.8516 260.731 49.4816L210.231 44.4816C208.401 44.3223 206.691 43.5067 205.415 42.1853C204.14 40.8639 203.385 39.1257 203.291 37.2916V36.0816L190.051 34.7716C184.061 34.1816 179.211 38.2616 179.211 43.8716Z" fill="white"/>
<path opacity="0.18" d="M292.181 55.0012V265.051C292.181 270.661 287.331 274.731 281.341 274.151L190.341 265.151H190.051C184.051 264.561 179.211 259.541 179.211 253.921V43.8712C179.211 38.2612 184.061 34.1812 190.051 34.7812L203.301 36.0712V37.3212C203.391 39.1552 204.143 40.8943 205.417 42.2164C206.691 43.5384 208.402 44.3537 210.231 44.5112L211.231 44.6112L260.721 49.4812C264.551 49.8512 267.661 47.2512 267.661 43.6612V42.4012L281.361 43.7612C282.454 43.8648 283.528 44.1206 284.551 44.5212C286.721 45.3101 288.607 46.7289 289.966 48.5959C291.326 50.463 292.097 52.6933 292.181 55.0012V55.0012Z" fill="#1E88E5"/>
<path opacity="0.18" d="M292.178 54.9986V265.049C292.178 270.659 287.328 274.729 281.338 274.149L190.338 265.149C185.938 263.419 182.738 259.259 182.738 254.689V44.6686C182.738 39.0486 187.588 34.9786 193.568 35.5686L203.298 36.5686L206.818 36.9086V38.1686C206.869 39.5541 207.31 40.8972 208.09 42.0434C208.87 43.1897 209.958 44.0926 211.228 44.6486C212.022 45.0243 212.874 45.261 213.748 45.3486L264.248 50.3486C268.078 50.7186 271.188 48.1086 271.188 44.5286V43.1986L284.528 44.5186C286.703 45.3042 288.593 46.7216 289.956 48.5889C291.319 50.4563 292.093 52.6883 292.178 54.9986V54.9986Z" fill="#1E88E5"/>
<path d="M228.59 41.7408L245.95 43.4508V42.0108L228.59 40.3008V41.7408Z" fill="url(#paint1_linear)"/>
<path d="M225.694 41.3561C226.174 40.536 225.812 39.4328 224.887 38.8921C223.963 38.3514 222.824 38.5778 222.345 39.3979C221.865 40.218 222.226 41.3212 223.151 41.8619C224.076 42.4026 225.215 42.1762 225.694 41.3561Z" fill="url(#paint2_linear)"/>
<g opacity="0.19">
<path opacity="0.19" d="M191.868 253.452C190.454 253.35 189.133 252.709 188.178 251.662C187.458 250.882 186.768 250.062 186.028 249.302C185.413 248.531 184.571 247.974 183.622 247.708C182.673 247.443 181.664 247.483 180.738 247.822C178.798 248.532 180.128 247.662 180.078 249.822C180.078 250.932 180.078 252.042 180.078 253.152C180.088 253.818 179.956 254.478 179.691 255.089C179.426 255.7 179.034 256.248 178.542 256.696C178.049 257.144 177.467 257.483 176.833 257.689C176.2 257.895 175.53 257.964 174.868 257.892C172.868 257.752 170.848 257.592 168.808 257.412C167.369 257.284 166.029 256.622 165.054 255.556C164.078 254.49 163.538 253.097 163.538 251.652C163.538 250.542 163.538 249.432 163.538 248.322C163.532 247.328 163.24 246.356 162.698 245.523C162.155 244.69 161.385 244.03 160.478 243.622C159.678 243.153 158.746 242.957 157.825 243.063C156.903 243.17 156.041 243.573 155.368 244.212C154.628 244.862 153.948 245.572 153.218 246.212C151.028 248.212 147.868 247.902 145.718 245.562C144.228 243.942 142.718 242.312 141.278 240.662C139.108 238.222 139.118 235.092 141.278 232.992C141.968 232.332 142.688 231.712 143.358 230.992C144.047 230.347 144.517 229.504 144.706 228.579C144.894 227.655 144.79 226.695 144.408 225.832C144.105 224.892 143.535 224.06 142.768 223.437C142.001 222.814 141.071 222.427 140.088 222.322C139.008 222.182 137.928 222.162 136.848 222.032C135.351 221.911 133.96 221.21 132.974 220.078C131.987 218.945 131.482 217.471 131.568 215.972C131.568 213.972 131.568 212.032 131.568 210.062C131.527 209.412 131.62 208.761 131.843 208.149C132.067 207.538 132.414 206.979 132.865 206.509C133.315 206.039 133.858 205.668 134.459 205.419C135.061 205.17 135.707 205.048 136.358 205.062C137.468 205.062 138.588 205.182 139.698 205.272C140.675 205.419 141.674 205.227 142.526 204.726C143.378 204.225 144.032 203.447 144.378 202.522C145.208 200.622 144.748 198.672 143.118 196.852C142.458 196.112 141.778 195.392 141.118 194.642C140.166 193.655 139.633 192.338 139.633 190.967C139.633 189.596 140.166 188.278 141.118 187.292C142.698 185.742 144.308 184.232 145.968 182.792C147.019 181.941 148.361 181.536 149.707 181.663C151.053 181.79 152.295 182.44 153.168 183.472C153.918 184.272 154.628 185.122 155.398 185.912C156.008 186.638 156.825 187.161 157.741 187.407C158.657 187.654 159.626 187.614 160.518 187.292C161.415 187.013 162.195 186.447 162.737 185.68C163.279 184.914 163.554 183.99 163.518 183.052C163.518 182.052 163.518 180.972 163.518 179.942C163.598 176.612 165.788 174.592 169.038 174.832L174.678 175.282C176.158 175.381 177.545 176.042 178.554 177.129C179.563 178.217 180.119 179.648 180.108 181.132C180.108 182.132 180.108 183.132 180.108 184.132C180.065 185.161 180.327 186.179 180.861 187.06C181.395 187.94 182.176 188.644 183.108 189.082C183.955 189.574 184.941 189.77 185.912 189.64C186.882 189.509 187.782 189.06 188.468 188.362C189.138 187.732 189.788 187.092 190.468 186.472C190.99 186.012 191.599 185.663 192.259 185.443C192.918 185.224 193.615 185.139 194.308 185.194C195.001 185.249 195.676 185.443 196.293 185.763C196.909 186.084 197.455 186.526 197.898 187.062C199.448 188.722 200.978 190.412 202.488 192.112C202.981 192.605 203.373 193.19 203.639 193.835C203.906 194.479 204.044 195.169 204.044 195.867C204.044 196.564 203.906 197.255 203.639 197.899C203.373 198.543 202.981 199.129 202.488 199.622C201.758 200.332 200.978 200.992 200.258 201.712C199.615 202.324 199.169 203.116 198.98 203.984C198.791 204.852 198.867 205.757 199.198 206.582C199.446 207.508 199.954 208.344 200.664 208.989C201.373 209.635 202.253 210.062 203.198 210.222C204.338 210.442 205.498 210.462 206.648 210.572C208.042 210.634 209.355 211.243 210.302 212.267C211.249 213.291 211.754 214.648 211.708 216.042C211.775 218.302 211.775 220.558 211.708 222.812C211.608 226.022 209.028 230.052 205.888 229.812C204.888 229.742 199.398 228.812 198.658 230.712C197.918 232.612 198.888 233.782 200.278 235.382C200.998 236.212 201.778 237.002 202.498 237.832C203.49 238.832 204.046 240.183 204.046 241.592C204.046 243 203.49 244.352 202.498 245.352C200.998 246.822 199.498 248.252 197.918 249.692C196.868 250.782 194.428 253.412 191.868 253.452ZM150.078 214.632C150.078 227.042 159.738 237.812 171.788 238.782C181.588 238.862 190.098 232.092 190.088 219.782C190.116 213.977 187.938 208.378 183.995 204.117C180.052 199.856 174.638 197.253 168.848 196.832C156.778 195.822 150.098 202.242 150.078 214.632Z" fill="#020202"/>
</g>
<path d="M191.431 252.778C190.017 252.685 188.694 252.047 187.741 250.998C187.021 250.218 186.331 249.398 185.591 248.628C184.974 247.861 184.131 247.306 183.182 247.043C182.233 246.779 181.226 246.819 180.301 247.158C179.39 247.459 178.604 248.051 178.062 248.842C177.52 249.633 177.252 250.58 177.301 251.538C177.301 252.648 177.301 253.758 177.301 254.868C177.311 255.534 177.178 256.194 176.914 256.805C176.649 257.416 176.257 257.964 175.764 258.412C175.272 258.861 174.689 259.199 174.056 259.405C173.423 259.611 172.753 259.68 172.091 259.608C170.091 259.468 168.071 259.308 166.031 259.128C164.591 259.001 163.252 258.338 162.276 257.272C161.301 256.206 160.76 254.813 160.761 253.368C160.761 252.248 160.761 251.148 160.761 250.038C160.755 249.044 160.463 248.072 159.92 247.239C159.378 246.406 158.608 245.746 157.701 245.338C156.901 244.868 155.969 244.671 155.047 244.777C154.125 244.884 153.263 245.288 152.591 245.928C151.851 246.578 151.171 247.288 150.441 247.928C148.251 249.928 145.091 249.618 142.941 247.278C141.451 245.648 139.941 244.028 138.501 242.378C136.331 239.938 136.341 236.808 138.501 234.708C139.191 234.048 139.911 233.428 140.581 232.708C141.272 232.065 141.744 231.221 141.933 230.296C142.121 229.371 142.015 228.41 141.631 227.548C141.327 226.608 140.757 225.776 139.991 225.153C139.224 224.53 138.293 224.143 137.311 224.038C136.231 223.898 135.151 223.878 134.081 223.748C132.582 223.63 131.189 222.93 130.2 221.797C129.211 220.664 128.705 219.189 128.791 217.688C128.791 215.688 128.791 213.748 128.791 211.778C128.749 211.128 128.843 210.477 129.066 209.866C129.289 209.254 129.637 208.696 130.087 208.226C130.538 207.756 131.081 207.384 131.682 207.135C132.284 206.886 132.93 206.764 133.581 206.778C134.691 206.778 135.811 206.898 136.921 206.988C137.898 207.136 138.896 206.943 139.748 206.442C140.6 205.942 141.254 205.164 141.601 204.238C142.431 202.338 141.971 200.388 140.341 198.568C139.681 197.828 139.001 197.108 138.341 196.358C137.39 195.369 136.859 194.05 136.859 192.678C136.859 191.306 137.39 189.987 138.341 188.998C139.921 187.458 141.531 185.948 143.191 184.498C144.244 183.651 145.586 183.249 146.931 183.378C148.276 183.507 149.518 184.157 150.391 185.188C151.141 185.988 151.851 186.838 152.621 187.628C153.23 188.355 154.048 188.877 154.964 189.124C155.879 189.37 156.849 189.33 157.741 189.008C158.638 188.729 159.417 188.163 159.96 187.397C160.502 186.63 160.777 185.706 160.741 184.768C160.741 183.768 160.741 182.688 160.741 181.658C160.821 178.328 163.011 176.298 166.261 176.548C168.141 176.698 170.021 176.838 171.901 176.998C173.381 177.097 174.767 177.758 175.777 178.846C176.786 179.933 177.342 181.365 177.331 182.848C177.331 183.848 177.331 184.848 177.331 185.848C177.288 186.877 177.55 187.895 178.084 188.776C178.617 189.656 179.399 190.36 180.331 190.798C181.177 191.29 182.164 191.486 183.134 191.356C184.105 191.226 185.004 190.776 185.691 190.078C186.361 189.448 187.011 188.808 187.691 188.188C188.213 187.729 188.822 187.379 189.481 187.159C190.141 186.94 190.838 186.855 191.531 186.91C192.224 186.965 192.899 187.159 193.515 187.48C194.132 187.801 194.678 188.242 195.121 188.778C196.671 190.438 198.201 192.128 199.711 193.778C200.204 194.271 200.595 194.857 200.862 195.501C201.129 196.145 201.266 196.836 201.266 197.533C201.266 198.23 201.129 198.921 200.862 199.565C200.595 200.21 200.204 200.795 199.711 201.288C198.981 201.998 198.211 202.658 197.481 203.378C196.837 203.991 196.392 204.782 196.203 205.65C196.014 206.519 196.09 207.423 196.421 208.248C196.668 209.174 197.177 210.01 197.886 210.656C198.595 211.301 199.475 211.729 200.421 211.888C201.561 212.108 202.721 212.118 203.871 212.238C205.264 212.3 206.577 212.91 207.524 213.934C208.472 214.958 208.977 216.314 208.931 217.708C209.004 219.968 209.004 222.225 208.931 224.478C208.831 227.688 206.851 229.478 203.711 229.228C202.711 229.158 201.711 229.038 200.711 229.008C199.796 228.948 198.887 229.194 198.128 229.709C197.369 230.223 196.804 230.976 196.521 231.848C196.155 232.722 196.055 233.684 196.233 234.614C196.411 235.544 196.859 236.401 197.521 237.078C198.241 237.908 199.021 238.698 199.741 239.518C200.733 240.52 201.29 241.873 201.29 243.283C201.29 244.693 200.733 246.046 199.741 247.048C198.241 248.518 196.741 249.948 195.161 251.388C194.679 251.879 194.095 252.257 193.45 252.497C192.806 252.738 192.116 252.833 191.431 252.778V252.778ZM147.301 216.328C147.301 228.728 156.971 239.508 169.011 240.478C181.051 241.448 190.811 232.158 190.811 219.818C190.811 207.478 181.061 196.708 169.121 195.738C157.181 194.768 147.361 203.938 147.301 216.328V216.328Z" fill="#1E88E5"/>
<g opacity="0.19">
<path opacity="0.19" d="M231.45 209.569C230.729 209.522 230.054 209.195 229.57 208.659C229.2 208.259 228.85 207.839 228.48 207.449C228.163 207.059 227.733 206.778 227.25 206.643C226.766 206.509 226.252 206.528 225.78 206.699C224.78 207.059 225.47 206.619 225.44 207.699C225.44 208.269 225.44 208.839 225.44 209.399C225.443 209.738 225.375 210.075 225.239 210.386C225.103 210.697 224.903 210.976 224.652 211.205C224.401 211.433 224.104 211.606 223.781 211.712C223.459 211.818 223.118 211.854 222.78 211.819L219.69 211.569C218.959 211.493 218.282 211.152 217.786 210.61C217.29 210.068 217.011 209.363 217 208.629C217 208.069 217 207.499 217 206.929C216.995 206.423 216.846 205.93 216.569 205.506C216.293 205.083 215.901 204.747 215.44 204.539C215.031 204.298 214.556 204.198 214.085 204.252C213.614 204.306 213.173 204.512 212.83 204.839C212.46 205.169 212.11 205.529 211.74 205.839C211.47 206.076 211.155 206.256 210.814 206.369C210.473 206.481 210.112 206.523 209.754 206.492C209.396 206.461 209.049 206.358 208.732 206.189C208.415 206.02 208.135 205.789 207.91 205.509C207.15 204.679 206.39 203.849 205.64 203.009C205.378 202.755 205.169 202.452 205.027 202.116C204.884 201.78 204.811 201.419 204.811 201.054C204.811 200.689 204.884 200.328 205.027 199.992C205.169 199.656 205.378 199.353 205.64 199.099L206.7 198.099C207.05 197.769 207.289 197.339 207.384 196.868C207.479 196.397 207.425 195.908 207.23 195.469C207.077 194.988 206.788 194.561 206.398 194.242C206.007 193.922 205.532 193.723 205.03 193.669C204.48 193.599 203.93 193.589 203.38 193.529C202.62 193.453 201.917 193.09 201.415 192.514C200.914 191.938 200.651 191.192 200.68 190.429V187.429C200.66 187.098 200.71 186.767 200.825 186.456C200.94 186.145 201.118 185.861 201.348 185.622C201.579 185.384 201.856 185.195 202.162 185.069C202.469 184.943 202.798 184.881 203.13 184.889C203.69 184.889 204.26 184.949 204.83 184.999C205.328 185.075 205.838 184.977 206.273 184.722C206.708 184.467 207.042 184.071 207.22 183.599C207.422 183.109 207.467 182.568 207.351 182.051C207.235 181.534 206.962 181.066 206.57 180.709C206.24 180.329 205.89 179.959 205.57 179.579C205.084 179.076 204.813 178.403 204.813 177.704C204.813 177.004 205.084 176.332 205.57 175.829C206.37 175.039 207.2 174.269 208.04 173.529C208.577 173.099 209.261 172.896 209.946 172.961C210.631 173.027 211.263 173.356 211.71 173.879C212.1 174.289 212.46 174.719 212.85 175.119C213.159 175.492 213.575 175.76 214.043 175.887C214.51 176.014 215.005 175.994 215.46 175.829C215.919 175.69 216.32 175.403 216.598 175.012C216.877 174.621 217.018 174.149 217 173.669C217 173.139 217 172.609 217 172.079C216.975 171.713 217.033 171.346 217.168 171.004C217.304 170.663 217.514 170.357 217.784 170.107C218.053 169.858 218.375 169.672 218.726 169.564C219.076 169.455 219.447 169.426 219.81 169.479L222.69 169.699C223.445 169.757 224.15 170.099 224.664 170.655C225.178 171.211 225.462 171.942 225.46 172.699C225.46 173.209 225.46 173.699 225.46 174.229C225.443 174.754 225.578 175.272 225.849 175.721C226.121 176.17 226.517 176.531 226.99 176.759C227.423 177.011 227.927 177.112 228.423 177.044C228.92 176.977 229.379 176.747 229.73 176.389C230.07 176.069 230.4 175.739 230.73 175.389C230.996 175.154 231.306 174.974 231.643 174.862C231.979 174.749 232.335 174.705 232.689 174.733C233.042 174.761 233.387 174.861 233.702 175.025C234.016 175.189 234.295 175.415 234.52 175.689C235.31 176.539 236.1 177.389 236.87 178.259C237.377 178.767 237.662 179.456 237.662 180.174C237.662 180.892 237.377 181.581 236.87 182.089C236.5 182.459 236.11 182.789 235.74 183.159C235.41 183.469 235.181 183.872 235.085 184.315C234.988 184.758 235.028 185.219 235.2 185.639C235.323 186.107 235.576 186.53 235.93 186.859C236.284 187.189 236.724 187.41 237.2 187.499C237.78 187.609 238.37 187.619 238.95 187.679C239.662 187.708 240.333 188.017 240.817 188.54C241.301 189.064 241.557 189.757 241.53 190.469C241.57 191.616 241.57 192.766 241.53 193.919C241.48 195.559 240.17 197.609 238.53 197.509C238.01 197.509 235.21 197.009 234.83 197.959C234.45 198.909 234.95 199.529 235.66 200.349C236.03 200.769 236.43 201.169 236.8 201.589C237.303 202.101 237.585 202.791 237.585 203.509C237.585 204.227 237.303 204.917 236.8 205.429C236.03 206.179 235.24 206.909 234.46 207.639C234 208.209 232.76 209.549 231.45 209.569ZM210.14 189.769C210.135 192.828 211.264 195.78 213.309 198.055C215.353 200.33 218.168 201.768 221.21 202.089C226.21 202.089 230.55 198.679 230.55 192.379C230.56 189.419 229.447 186.565 227.435 184.393C225.423 182.222 222.662 180.894 219.71 180.679C213.56 180.179 210.15 183.449 210.14 189.769V189.769Z" fill="#020202"/>
</g>
<path d="M231.228 209.23C230.506 209.187 229.83 208.86 229.348 208.32C228.978 207.92 228.628 207.51 228.248 207.12C227.933 206.729 227.503 206.445 227.02 206.309C226.536 206.173 226.021 206.191 225.548 206.36C225.083 206.515 224.682 206.817 224.406 207.222C224.129 207.627 223.993 208.111 224.018 208.6C224.018 209.16 224.018 209.73 224.018 210.29C224.025 210.63 223.958 210.968 223.824 211.281C223.689 211.594 223.489 211.874 223.237 212.103C222.985 212.332 222.687 212.505 222.363 212.61C222.039 212.714 221.697 212.749 221.358 212.71L218.268 212.47C217.534 212.405 216.852 212.067 216.355 211.522C215.859 210.978 215.585 210.267 215.588 209.53C215.588 208.96 215.588 208.4 215.588 207.83C215.582 207.323 215.432 206.829 215.155 206.404C214.879 205.98 214.488 205.642 214.028 205.43C213.62 205.193 213.145 205.095 212.676 205.151C212.208 205.207 211.77 205.414 211.428 205.74C211.048 206.07 210.698 206.43 210.328 206.74C210.058 206.977 209.742 207.156 209.401 207.268C209.059 207.379 208.698 207.42 208.341 207.388C207.983 207.357 207.635 207.253 207.318 207.083C207.002 206.913 206.723 206.681 206.498 206.4C205.738 205.58 204.978 204.75 204.238 203.9C203.976 203.646 203.767 203.343 203.625 203.007C203.483 202.671 203.409 202.31 203.409 201.945C203.409 201.58 203.483 201.219 203.625 200.883C203.767 200.547 203.976 200.244 204.238 199.99C204.588 199.66 204.948 199.34 205.298 198.99C205.65 198.66 205.89 198.228 205.985 197.755C206.08 197.282 206.025 196.791 205.828 196.35C205.675 195.87 205.386 195.445 204.995 195.127C204.604 194.809 204.129 194.612 203.628 194.56C203.078 194.49 202.528 194.48 201.978 194.42C201.218 194.344 200.515 193.981 200.014 193.405C199.512 192.829 199.249 192.083 199.278 191.32C199.278 190.32 199.278 189.32 199.278 188.32C199.257 187.99 199.305 187.658 199.419 187.347C199.533 187.036 199.71 186.752 199.94 186.514C200.169 186.275 200.446 186.086 200.752 185.96C201.058 185.834 201.387 185.772 201.718 185.78C202.278 185.78 202.848 185.84 203.418 185.88C203.915 185.957 204.424 185.86 204.859 185.607C205.294 185.354 205.629 184.96 205.808 184.49C206.009 183.999 206.055 183.458 205.941 182.94C205.827 182.422 205.557 181.951 205.168 181.59C204.828 181.22 204.478 180.85 204.168 180.46C203.682 179.957 203.411 179.285 203.411 178.585C203.411 177.886 203.682 177.213 204.168 176.71C204.978 175.92 205.798 175.16 206.648 174.42C207.185 173.988 207.869 173.783 208.554 173.848C209.24 173.914 209.873 174.244 210.318 174.77C210.698 175.18 211.058 175.61 211.448 176.01C211.758 176.381 212.175 176.647 212.643 176.773C213.11 176.898 213.604 176.876 214.058 176.71C214.519 176.573 214.922 176.286 215.203 175.895C215.483 175.504 215.626 175.031 215.608 174.55C215.608 174.03 215.608 173.49 215.608 172.97C215.585 172.603 215.644 172.235 215.781 171.894C215.918 171.552 216.129 171.246 216.399 170.996C216.669 170.746 216.991 170.559 217.342 170.449C217.693 170.339 218.064 170.309 218.428 170.36L221.298 170.59C222.053 170.648 222.759 170.99 223.272 171.546C223.786 172.102 224.07 172.833 224.068 173.59C224.068 174.11 224.068 174.59 224.068 175.13C224.045 175.653 224.178 176.171 224.448 176.619C224.718 177.068 225.115 177.426 225.588 177.65C226.02 177.903 226.524 178.005 227.02 177.94C227.516 177.875 227.977 177.646 228.328 177.29C228.668 176.97 228.998 176.64 229.328 176.29C229.594 176.056 229.903 175.878 230.239 175.767C230.575 175.655 230.929 175.612 231.282 175.64C231.634 175.668 231.978 175.766 232.291 175.929C232.605 176.093 232.883 176.317 233.108 176.59C233.908 177.44 234.688 178.3 235.458 179.17C235.963 179.679 236.247 180.368 236.247 181.085C236.247 181.802 235.963 182.491 235.458 183C235.078 183.36 234.688 183.7 234.318 184.06C233.991 184.374 233.764 184.779 233.668 185.223C233.572 185.666 233.61 186.128 233.778 186.55C233.902 187.017 234.156 187.44 234.509 187.769C234.863 188.098 235.303 188.32 235.778 188.41C236.362 188.497 236.949 188.554 237.538 188.58C238.25 188.614 238.92 188.927 239.403 189.451C239.886 189.975 240.143 190.668 240.118 191.38C240.118 192.527 240.118 193.677 240.118 194.83C240.141 195.176 240.085 195.522 239.955 195.843C239.825 196.165 239.624 196.452 239.368 196.685C239.111 196.918 238.805 197.089 238.473 197.187C238.14 197.285 237.79 197.307 237.448 197.25C236.938 197.25 236.448 197.15 235.908 197.14C235.441 197.108 234.976 197.234 234.589 197.497C234.201 197.759 233.912 198.144 233.768 198.59C233.584 199.035 233.533 199.524 233.624 199.997C233.715 200.469 233.942 200.905 234.278 201.25C234.648 201.68 235.048 202.08 235.418 202.5C235.924 203.011 236.207 203.701 236.207 204.42C236.207 205.139 235.924 205.829 235.418 206.34C234.648 207.09 233.858 207.82 233.078 208.55C232.835 208.787 232.545 208.971 232.226 209.088C231.907 209.205 231.567 209.253 231.228 209.23V209.23ZM208.718 190.64C208.706 193.705 209.831 196.666 211.876 198.949C213.921 201.232 216.74 202.676 219.788 203C221.229 203.119 222.679 202.932 224.043 202.452C225.407 201.973 226.655 201.211 227.704 200.216C228.754 199.221 229.582 198.016 230.134 196.68C230.686 195.343 230.95 193.905 230.908 192.46C230.892 189.413 229.756 186.478 227.717 184.213C225.678 181.949 222.877 180.514 219.848 180.18C218.411 180.053 216.964 180.23 215.601 180.702C214.238 181.173 212.99 181.928 211.939 182.915C210.888 183.903 210.057 185.102 209.502 186.433C208.947 187.765 208.68 189.198 208.718 190.64V190.64Z" fill="#1E88E5"/>
<path d="M341.669 170.55L253.609 162.43V100.16L341.669 108.28V170.55Z" fill="white"/>
<path d="M208.72 133.531L120.66 125.411V63.1406L208.72 71.2706V133.531Z" fill="white"/>
<path d="M312.072 128.402L224.012 120.272V58.0117L312.072 66.1317V128.402Z" stroke="white" stroke-width="1.06" stroke-miterlimit="10"/>
<path d="M54.9529 217.553L69.8711 226.605L114.501 153.057L99.5829 144.005L54.9529 217.553Z" fill="#1E88E5"/>
<path d="M68.2885 211.405L69.1776 211.944C70.6932 212.864 72.6674 212.381 73.5871 210.865L102.545 163.144C103.465 161.628 102.982 159.654 101.466 158.734L100.577 158.195C99.0613 157.275 97.0871 157.758 96.1674 159.274L67.2095 206.995C66.2898 208.511 66.7729 210.485 68.2885 211.405Z" fill="url(#paint3_linear)"/>
<path d="M121.571 152.361C119.45 153.816 117.006 154.732 114.451 155.03C111.896 155.327 109.307 154.997 106.908 154.069C104.509 153.14 102.373 151.64 100.685 149.7C98.997 147.759 97.8074 145.436 97.2195 142.932C96.6316 140.428 96.6632 137.818 97.3115 135.329C97.9598 132.84 99.2053 130.546 100.94 128.647C102.675 126.748 104.846 125.3 107.267 124.43C109.687 123.559 112.284 123.292 114.831 123.651L111.081 129.861L106.861 136.861L117.971 143.591L122.231 136.541L125.821 130.611C128.102 134.071 128.935 138.287 128.14 142.355C127.346 146.422 124.987 150.015 121.571 152.361V152.361Z" fill="#1E88E5"/>
<path d="M65.2095 241.822C61.8449 243.637 57.9327 244.16 54.2095 243.292L64.0095 230.512L53.6895 222.602L43.8595 235.432L43.7995 235.332C42.3238 232.572 41.6995 229.438 42.0055 226.324C42.3115 223.21 43.534 220.256 45.5185 217.837C47.503 215.418 50.1602 213.642 53.1542 212.733C56.1483 211.824 59.3446 211.823 62.339 212.731C65.3334 213.639 67.9914 215.414 69.9768 217.832C71.9623 220.251 73.186 223.203 73.4932 226.317C73.8005 229.431 73.1775 232.566 71.703 235.326C70.2285 238.086 67.9687 240.346 65.2095 241.822Z" fill="#1E88E5"/>
</g>
<defs>
<linearGradient id="paint0_linear" x1="315.027" y1="110.767" x2="144.291" y2="245.888" gradientUnits="userSpaceOnUse">
<stop stop-color="white"/>
<stop offset="1" stop-color="#CBCBCB"/>
</linearGradient>
<linearGradient id="paint1_linear" x1="-57545.2" y1="-4010.51" x2="-57548.5" y2="-3974.78" gradientUnits="userSpaceOnUse">
<stop stop-color="white"/>
<stop offset="1" stop-color="#CBCBCB"/>
</linearGradient>
<linearGradient id="paint2_linear" x1="-8608.37" y1="1011.89" x2="-8613.87" y2="1043.48" gradientUnits="userSpaceOnUse">
<stop stop-color="white"/>
<stop offset="1" stop-color="#CBCBCB"/>
</linearGradient>
<linearGradient id="paint3_linear" x1="50.4273" y1="136.82" x2="155.505" y2="226.923" gradientUnits="userSpaceOnUse">
<stop offset="0.01"/>
<stop offset="0.13" stop-opacity="0.69"/>
<stop offset="0.25" stop-opacity="0.32"/>
<stop offset="1" stop-opacity="0"/>
</linearGradient>
<clipPath id="clip0">
<rect width="379.36" height="324.85" fill="white"/>
</clipPath>
</defs>
</svg>
