<svg width="842" height="501" viewBox="0 0 842 501" fill="none" xmlns="http://www.w3.org/2000/svg">
<g clip-path="url(#clip0)">
<path d="M426 501.325C655.75 501.325 842 486.774 842 468.825C842 450.876 655.75 436.325 426 436.325C196.25 436.325 10 450.876 10 468.825C10 486.774 196.25 501.325 426 501.325Z" fill="#3F3D56"/>
<path d="M662.631 105.781H146.168V468.579H662.631V105.781Z" fill="#F2F2F2"/>
<path d="M319.322 244.205H189.645V470.579H319.322V244.205Z" fill="#3F3D56"/>
<path d="M248.564 257.786H213.633V290.35H248.564V257.786Z" fill="#F2F2F2"/>
<path d="M295.338 257.786H260.406V290.35H295.338V257.786Z" fill="#F2F2F2"/>
<path d="M248.564 302.19H213.633V335.938H248.564V302.19Z" fill="#F2F2F2"/>
<path d="M295.338 302.19H260.406V335.938H295.338V302.19Z" fill="#F2F2F2"/>
<path d="M302.831 380.879C307.385 380.879 311.077 377.187 311.077 372.633C311.077 368.079 307.385 364.388 302.831 364.388C298.278 364.388 294.586 368.079 294.586 372.633C294.586 377.187 298.278 380.879 302.831 380.879Z" fill="#63ABFF"/>
<path d="M619.154 222.716H362.797V437.846H619.154V222.716Z" fill="#3F3D56"/>
<path d="M716.602 174.083H92.1992L133.831 87.041L143.148 67.552L155.337 42.066L164.654 22.577L175.455 0H667.407L673.786 22.577L679.295 42.066L686.499 67.552L692.008 87.041L716.602 174.083Z" fill="#3F3D56"/>
<path d="M380.788 311.917H371.793V367.386H380.788V311.917Z" fill="#63ABFF"/>
<path d="M380.788 320.162H371.793V326.908H380.788V320.162Z" fill="#F2F2F2"/>
<path d="M380.788 352.395H371.793V359.141H380.788V352.395Z" fill="#F2F2F2"/>
<path d="M407.023 311.917H385.285V367.386H407.023V311.917Z" fill="#63ABFF"/>
<path d="M407.023 320.162H385.285V326.908H407.023V320.162Z" fill="#F2F2F2"/>
<path d="M407.023 352.395H385.285V359.141H407.023V352.395Z" fill="#F2F2F2"/>
<path d="M421.265 311.917H412.27V367.386H421.265V311.917Z" fill="#63ABFF"/>
<path d="M421.265 320.162H412.27V326.908H421.265V320.162Z" fill="#F2F2F2"/>
<path d="M421.265 352.395H412.27V359.141H421.265V352.395Z" fill="#F2F2F2"/>
<path d="M434.761 311.917H425.766V367.386H434.761V311.917Z" fill="#63ABFF"/>
<path d="M434.761 320.162H425.766V326.908H434.761V320.162Z" fill="#F2F2F2"/>
<path d="M434.761 352.395H425.766V359.141H434.761V352.395Z" fill="#F2F2F2"/>
<path d="M443.425 312.112L435.008 315.285L454.573 367.189L462.99 364.016L443.425 312.112Z" fill="#63ABFF"/>
<path d="M446.335 319.828L437.918 323.001L440.298 329.314L448.714 326.141L446.335 319.828Z" fill="#F2F2F2"/>
<path d="M457.702 349.988L449.285 353.161L451.665 359.474L460.082 356.301L457.702 349.988Z" fill="#F2F2F2"/>
<path d="M610.91 311.917H589.172V367.386H610.91V311.917Z" fill="#63ABFF"/>
<path d="M610.91 320.162H589.172V326.908H610.91V320.162Z" fill="#F2F2F2"/>
<path d="M610.91 352.395H589.172V359.141H610.91V352.395Z" fill="#F2F2F2"/>
<path d="M583.925 311.917H574.93V367.386H583.925V311.917Z" fill="#63ABFF"/>
<path d="M583.925 320.162H574.93V326.908H583.925V320.162Z" fill="#F2F2F2"/>
<path d="M583.925 352.395H574.93V359.141H583.925V352.395Z" fill="#F2F2F2"/>
<path d="M570.432 311.917H561.438V367.386H570.432V311.917Z" fill="#63ABFF"/>
<path d="M570.432 320.162H561.438V326.908H570.432V320.162Z" fill="#F2F2F2"/>
<path d="M570.432 352.395H561.438V359.141H570.432V352.395Z" fill="#F2F2F2"/>
<path d="M552.769 312.113L533.203 364.017L541.62 367.189L561.185 315.285L552.769 312.113Z" fill="#63ABFF"/>
<path d="M549.864 319.828L547.484 326.141L555.901 329.313L558.281 323.001L549.864 319.828Z" fill="#F2F2F2"/>
<path d="M538.493 349.988L536.113 356.301L544.53 359.474L546.91 353.161L538.493 349.988Z" fill="#F2F2F2"/>
<path d="M619.154 367.386H362.797V372.633H619.154V367.386Z" fill="#F2F2F2"/>
<path d="M521.712 311.917H474.488V367.386H521.712V311.917Z" fill="#63ABFF"/>
<path d="M510.092 323.91H486.105V334.404H510.092V323.91Z" fill="#F2F2F2"/>
<path d="M493.228 222.716H488.73V270.689H493.228V222.716Z" fill="#F2F2F2"/>
<path d="M490.976 278.185C495.116 278.185 498.472 274.829 498.472 270.689C498.472 266.549 495.116 263.193 490.976 263.193C486.836 263.193 483.48 266.549 483.48 270.689C483.48 274.829 486.836 278.185 490.976 278.185Z" fill="#F2F2F2"/>
<path d="M679.294 42.0661H155.336L164.653 22.5771H673.785L679.294 42.0661Z" fill="#63ABFF"/>
<path d="M692.009 87.0408H133.832L143.149 67.5518H686.5L692.009 87.0408Z" fill="#63ABFF"/>
<path d="M100 309.325C155.228 309.325 200 264.554 200 209.325C200 154.097 155.228 109.325 100 109.325C44.7715 109.325 0 154.097 0 209.325C0 264.554 44.7715 309.325 100 309.325Z" fill="#63ABFF"/>
<path opacity="0.1" d="M100 295.325C147.496 295.325 186 256.822 186 209.325C186 161.829 147.496 123.325 100 123.325C52.5035 123.325 14 161.829 14 209.325C14 256.822 52.5035 295.325 100 295.325Z" fill="black"/>
<path d="M95.8786 260.073V247.556C89.5513 247.433 83.0055 245.201 79.1875 242.103L81.8055 233.8C86.3428 237.2 91.8453 239.066 97.5149 239.128C105.261 239.128 110.497 234.047 110.497 226.983C110.497 220.167 106.242 215.954 98.1696 212.235C87.042 207.278 80.1692 201.577 80.1692 190.795C80.1692 180.509 86.6057 172.701 96.6425 170.842V158.325H103.406V170.347C108.45 170.416 113.369 171.92 117.588 174.684L114.861 182.864C110.814 180.094 106.019 178.624 101.115 178.65C92.7152 178.65 89.5513 184.35 89.5513 189.308C89.5513 195.752 93.5877 198.974 103.079 203.436C114.315 208.642 119.988 215.086 119.988 226.116C119.988 235.906 113.988 245.078 102.751 247.183V260.073H95.8786Z" fill="#F2F2F2"/>
</g>
<defs>
<clipPath id="clip0">
<rect width="842" height="501" fill="white"/>
</clipPath>
</defs>
</svg>
