<svg width="704" height="451" viewBox="0 0 704 451" fill="none" xmlns="http://www.w3.org/2000/svg">
<path d="M703.876 0.398438H0.300781V451H703.876V0.398438Z" fill="#E6E6E6"/>
<path d="M683.756 56.915H20.418V228.688H683.756V56.915Z" fill="white"/>
<path d="M325.699 81.7275H185.418V89.7802H325.699V81.7275Z" fill="#E6E6E6"/>
<path d="M402.043 111.102H185.418V119.154H402.043V111.102Z" fill="#F2AE3B"/>
<path d="M361.962 138.775H185.418V146.828H361.962V138.775Z" fill="#E6E6E6"/>
<path d="M288.482 166.346H185.418V174.398H288.482V166.346Z" fill="#E6E6E6"/>
<path d="M340.968 193.915H185.418V201.968H340.968V193.915Z" fill="#E6E6E6"/>
<path d="M138.658 78.8643H121.48V96.0415H138.658V78.8643Z" fill="#E6E6E6"/>
<path d="M138.658 106.539H121.48V123.716H138.658V106.539Z" fill="#F2AE3B"/>
<path d="M138.658 134.213H121.48V151.39H138.658V134.213Z" fill="#E6E6E6"/>
<path d="M138.658 161.888H121.48V179.065H138.658V161.888Z" fill="#E6E6E6"/>
<path d="M138.658 189.562H121.48V206.74H138.658V189.562Z" fill="#F2AE3B"/>
<path d="M590.992 117.99H533.734V175.248H590.992V117.99Z" fill="#E6E6E6"/>
<path d="M683.756 252.546H20.418V424.319H683.756V252.546Z" fill="white"/>
<path d="M168.24 267.812H151.062V284.99H168.24V267.812Z" fill="#E6E6E6"/>
<path d="M138.658 267.812H121.48V284.99H138.658V267.812Z" fill="#F2AE3B"/>
<path d="M412.724 305.376C407.489 296.512 400.225 289.018 391.528 283.509C382.832 278 372.953 274.633 362.702 273.686C352.452 272.739 342.123 274.239 332.564 278.062C323.006 281.884 314.492 287.921 307.721 295.676L303.535 292.018C310.883 283.599 320.124 277.045 330.499 272.894C340.874 268.744 352.086 267.115 363.213 268.143C374.34 269.171 385.064 272.825 394.503 278.805C403.942 284.786 411.827 292.922 417.508 302.544L412.724 305.376Z" fill="#E6E6E6"/>
<path d="M415.344 377.794L410.73 374.692C417.563 364.501 421.376 352.586 421.729 340.322C422.082 328.057 418.96 315.942 412.724 305.376L417.508 302.544C424.279 314.015 427.669 327.167 427.286 340.481C426.903 353.796 422.763 366.731 415.344 377.794V377.794Z" fill="#F2AE3B"/>
<path d="M304.114 385.539C292.623 372.705 286.221 356.113 286.115 338.888C286.008 321.662 292.204 304.992 303.535 292.018L307.721 295.676C297.283 307.628 291.575 322.985 291.674 338.854C291.772 354.722 297.669 370.007 308.254 381.83L304.114 385.539Z" fill="#F2AE3B"/>
<path d="M356.713 409.052C346.786 409.045 336.972 406.947 327.91 402.896C318.847 398.844 310.739 392.93 304.113 385.538L308.254 381.829C314.863 389.214 323.073 394.99 332.256 398.717C341.439 402.445 351.352 404.024 361.238 403.336C371.125 402.647 380.723 399.708 389.3 394.744C397.878 389.78 405.207 382.921 410.729 374.691L415.343 377.793C408.889 387.418 400.164 395.304 389.938 400.756C379.712 406.208 368.301 409.057 356.713 409.052V409.052Z" fill="#F2AE3B"/>
<path d="M590.992 305.032H533.734V362.29H590.992V305.032Z" fill="#E6E6E6"/>
<path d="M176.351 342.249H119.094V399.507H176.351V342.249Z" fill="#E6E6E6"/>
<path d="M703.576 0H0V29.8905H703.576V0Z" fill="#F2AE3B"/>
<path d="M22.2118 20.8212C25.2715 20.8212 27.7518 18.3408 27.7518 15.2812C27.7518 12.2215 25.2715 9.74121 22.2118 9.74121C19.1522 9.74121 16.6719 12.2215 16.6719 15.2812C16.6719 18.3408 19.1522 20.8212 22.2118 20.8212Z" fill="white"/>
<path d="M43.2392 20.8212C46.2988 20.8212 48.7792 18.3408 48.7792 15.2812C48.7792 12.2215 46.2988 9.74121 43.2392 9.74121C40.1795 9.74121 37.6992 12.2215 37.6992 15.2812C37.6992 18.3408 40.1795 20.8212 43.2392 20.8212Z" fill="white"/>
<path d="M64.2704 20.8212C67.3301 20.8212 69.8104 18.3408 69.8104 15.2812C69.8104 12.2215 67.3301 9.74121 64.2704 9.74121C61.2108 9.74121 58.7305 12.2215 58.7305 15.2812C58.7305 18.3408 61.2108 20.8212 64.2704 20.8212Z" fill="white"/>
</svg>
