<svg width="876" height="502" viewBox="0 0 876 502" fill="none" xmlns="http://www.w3.org/2000/svg">
<g clip-path="url(#clip0)">
<path d="M857.53 0.0302734H18.47C8.2693 0.0302734 0 8.29958 0 18.5003V483.56C0 493.761 8.2693 502.03 18.47 502.03H857.53C867.731 502.03 876 493.761 876 483.56V18.5003C876 8.29958 867.731 0.0302734 857.53 0.0302734Z" fill="white"/>
<path d="M876.012 18.5V45H0.0117431V18.5C0.00779936 16.072 0.482643 13.667 1.40908 11.4226C2.33552 9.17829 3.69538 7.13863 5.41087 5.42035C7.12636 3.70207 9.16382 2.33889 11.4067 1.40881C13.6495 0.478734 16.0537 -3.20282e-06 18.4817 0H857.542C859.97 -3.20282e-06 862.374 0.478734 864.617 1.40881C866.86 2.33889 868.897 3.70207 870.613 5.42035C872.328 7.13863 873.688 9.17829 874.614 11.4226C875.541 13.667 876.016 16.072 876.012 18.5V18.5Z" fill="#3F3D56"/>
<g opacity="0.6">
<path opacity="0.6" d="M221.63 117.53H81.37C72.053 117.53 64.5 125.083 64.5 134.4V218.66C64.5 227.977 72.053 235.53 81.37 235.53H221.63C230.947 235.53 238.5 227.977 238.5 218.66V134.4C238.5 125.083 230.947 117.53 221.63 117.53Z" fill="#FF6F61"/>
<path opacity="0.6" d="M134.552 218.84C128.301 214.773 123.666 208.65 121.45 201.529C119.233 194.409 119.573 186.737 122.412 179.84C118.865 174.906 116.705 169.112 116.158 163.06C115.61 157.008 116.695 150.92 119.298 145.429C121.901 139.939 125.929 135.246 130.961 131.84C135.993 128.434 141.846 126.438 147.911 126.062C153.976 125.685 160.031 126.94 165.446 129.697C170.861 132.454 175.439 136.612 178.702 141.739C181.965 146.865 183.794 152.772 184 158.845C184.206 164.918 182.78 170.935 179.872 176.27C183.87 183.355 185.02 191.696 183.088 199.598C181.156 207.5 176.287 214.37 169.472 218.811C176.424 222.991 181.97 229.15 185.402 236.501H118.612C122.051 229.16 127.6 223.011 134.552 218.84V218.84Z" fill="white"/>
</g>
<path d="M501.63 311.53H361.37C352.053 311.53 344.5 319.083 344.5 328.4V412.66C344.5 421.977 352.053 429.53 361.37 429.53H501.63C510.947 429.53 518.5 421.977 518.5 412.66V328.4C518.5 319.083 510.947 311.53 501.63 311.53Z" fill="#FF6F61"/>
<path d="M448.472 418.841C453.425 421.782 457.674 425.772 460.922 430.531H401.102C404.349 425.772 408.599 421.782 413.552 418.841C407.301 414.773 402.666 408.65 400.45 401.529C398.233 394.409 398.573 386.737 401.412 379.841C397.865 374.906 395.705 369.112 395.158 363.06C394.61 357.008 395.695 350.92 398.298 345.429C400.901 339.939 404.929 335.246 409.961 331.84C414.993 328.434 420.846 326.438 426.911 326.062C432.976 325.685 439.031 326.94 444.446 329.697C449.861 332.454 454.439 336.612 457.702 341.739C460.965 346.865 462.794 352.772 463 358.845C463.206 364.918 461.78 370.935 458.872 376.271C462.87 383.355 464.02 391.696 462.088 399.598C460.156 407.5 455.287 414.37 448.472 418.811V418.841Z" fill="white"/>
<g opacity="0.6">
<path opacity="0.6" d="M501.63 117.53H361.37C352.053 117.53 344.5 125.083 344.5 134.4V218.66C344.5 227.977 352.053 235.53 361.37 235.53H501.63C510.947 235.53 518.5 227.977 518.5 218.66V134.4C518.5 125.083 510.947 117.53 501.63 117.53Z" fill="#FF6F61"/>
<path opacity="0.6" d="M465.359 185.58C466.653 191.878 466.02 198.419 463.542 204.351C461.065 210.284 456.858 215.333 451.469 218.84C458.421 223.02 463.968 229.179 467.399 236.53H400.609C404.041 229.179 409.587 223.02 416.539 218.84C410.775 215.081 406.376 209.565 403.995 203.109C401.613 196.653 401.376 189.601 403.319 183C402.884 183.048 402.447 183.072 402.009 183.07C398.671 183.036 395.474 181.719 393.08 179.393C390.686 177.066 389.279 173.907 389.15 170.571C389.022 167.235 390.181 163.978 392.389 161.473C394.597 158.969 397.683 157.41 401.009 157.12C400.339 155.521 399.999 153.803 400.009 152.07C400.019 149.028 401.094 146.087 403.049 143.756C405.003 141.426 407.713 139.855 410.706 139.316C413.7 138.777 416.787 139.305 419.432 140.808C422.076 142.31 424.11 144.693 425.179 147.54C427.216 145.654 429.803 144.47 432.561 144.16C435.32 143.851 438.105 144.432 440.509 145.82C442.105 144.894 443.879 144.318 445.715 144.13C447.55 143.943 449.405 144.148 451.155 144.733C452.905 145.317 454.51 146.268 455.864 147.521C457.219 148.774 458.291 150.301 459.009 152C462.402 151.999 465.661 153.324 468.09 155.694C470.519 158.063 471.926 161.288 472.009 164.68C473.404 166.357 474.354 168.358 474.773 170.498C475.191 172.639 475.065 174.85 474.404 176.929C473.744 179.008 472.571 180.887 470.994 182.393C469.417 183.9 467.486 184.985 465.379 185.55L465.359 185.58Z" fill="white"/>
</g>
<g opacity="0.6">
<path opacity="0.6" d="M794.63 311.53H654.37C645.053 311.53 637.5 319.083 637.5 328.4V412.66C637.5 421.977 645.053 429.53 654.37 429.53H794.63C803.947 429.53 811.5 421.977 811.5 412.66V328.4C811.5 319.083 803.947 311.53 794.63 311.53Z" fill="#FF6F61"/>
<path opacity="0.6" d="M758.359 385.581C759.653 391.878 759.02 398.42 756.542 404.352C754.065 410.285 749.858 415.334 744.469 418.841C749.422 421.783 753.671 425.773 756.919 430.531H697.099C700.347 425.773 704.596 421.783 709.549 418.841C703.783 415.084 699.382 409.568 696.999 403.112C694.616 396.656 694.377 389.603 696.319 383.001C695.884 383.049 695.447 383.073 695.009 383.071C691.671 383.037 688.474 381.72 686.08 379.393C683.686 377.067 682.279 373.908 682.15 370.572C682.022 367.236 683.181 363.979 685.389 361.474C687.597 358.97 690.683 357.411 694.009 357.121C693.339 355.522 692.999 353.804 693.009 352.071C693.019 349.029 694.094 346.087 696.049 343.757C698.003 341.427 700.713 339.856 703.706 339.317C706.7 338.778 709.787 339.306 712.432 340.809C715.076 342.311 717.11 344.693 718.179 347.541C720.216 345.655 722.803 344.471 725.561 344.161C728.32 343.852 731.105 344.433 733.509 345.821C735.105 344.895 736.879 344.319 738.715 344.131C740.55 343.944 742.405 344.149 744.155 344.734C745.905 345.318 747.51 346.269 748.864 347.522C750.219 348.775 751.291 350.301 752.009 352.001C755.402 352 758.661 353.325 761.09 355.695C763.519 358.064 764.926 361.289 765.009 364.681C766.404 366.358 767.354 368.359 767.773 370.499C768.191 372.64 768.065 374.851 767.404 376.93C766.744 379.009 765.571 380.888 763.994 382.394C762.417 383.901 760.486 384.986 758.379 385.551L758.359 385.581Z" fill="white"/>
</g>
<path d="M794.63 117.53H654.37C645.053 117.53 637.5 125.083 637.5 134.4V218.66C637.5 227.977 645.053 235.53 654.37 235.53H794.63C803.947 235.53 811.5 227.977 811.5 218.66V134.4C811.5 125.083 803.947 117.53 794.63 117.53Z" fill="#FF6F61"/>
<path d="M757.4 236.53H690.61C694.041 229.18 699.588 223.02 706.54 218.84C699.859 214.488 695.043 207.798 693.036 200.081C691.029 192.364 691.976 184.176 695.69 177.12C691.48 174 689 170.17 689 166.03C689 155.54 704.89 147.03 724.5 147.03C744.11 147.03 760 155.54 760 166.03C760 170.41 757.23 174.43 752.58 177.65C756.116 184.682 756.937 192.77 754.886 200.369C752.835 207.968 748.055 214.544 741.46 218.84C748.416 223.019 753.966 229.178 757.4 236.53V236.53Z" fill="white"/>
<g opacity="0.6">
<path opacity="0.6" d="M221.63 311.53H81.37C72.053 311.53 64.5 319.083 64.5 328.4V412.66C64.5 421.977 72.053 429.53 81.37 429.53H221.63C230.947 429.53 238.5 421.977 238.5 412.66V328.4C238.5 319.083 230.947 311.53 221.63 311.53Z" fill="#FF6F61"/>
<path opacity="0.6" d="M166.472 418.84C171.425 421.782 175.674 425.772 178.922 430.53H119.102C122.349 425.772 126.599 421.782 131.552 418.84C124.87 414.488 120.055 407.798 118.048 400.081C116.041 392.364 116.987 384.176 120.702 377.12C116.492 374 114.012 370.12 114.012 366.03C114.012 355.54 129.902 347.03 149.512 347.03C169.122 347.03 185.012 355.54 185.012 366.03C185.012 370.41 182.242 374.43 177.592 377.65C181.128 384.682 181.949 392.77 179.898 400.369C177.846 407.968 173.066 414.544 166.472 418.84V418.84Z" fill="#FF6F61"/>
<path opacity="0.6" d="M221.63 311.53H81.37C72.053 311.53 64.5 319.083 64.5 328.4V412.66C64.5 421.977 72.053 429.53 81.37 429.53H221.63C230.947 429.53 238.5 421.977 238.5 412.66V328.4C238.5 319.083 230.947 311.53 221.63 311.53Z" fill="#FF6F61"/>
<path opacity="0.6" d="M166.472 418.84C171.425 421.782 175.674 425.772 178.922 430.53H119.102C122.349 425.772 126.599 421.782 131.552 418.84C124.87 414.488 120.055 407.798 118.048 400.081C116.041 392.364 116.987 384.176 120.702 377.12C116.492 374 114.012 370.12 114.012 366.03C114.012 355.54 129.902 347.03 149.512 347.03C169.122 347.03 185.012 355.54 185.012 366.03C185.012 370.41 182.242 374.43 177.592 377.65C181.128 384.682 181.949 392.77 179.898 400.369C177.846 407.968 173.066 414.544 166.472 418.84V418.84Z" fill="white"/>
</g>
<path d="M818.831 121.641L813.771 116.551C813.522 116.299 813.225 116.099 812.898 115.963C812.571 115.826 812.22 115.756 811.866 115.756C811.512 115.756 811.161 115.826 810.834 115.963C810.507 116.099 810.21 116.299 809.961 116.551L778.201 148.001L764.771 134.461C764.524 134.211 764.229 134.013 763.905 133.878C763.581 133.742 763.233 133.673 762.881 133.673C762.53 133.673 762.182 133.742 761.857 133.878C761.533 134.013 761.238 134.211 760.991 134.461L755.881 139.511C755.379 140.02 755.098 140.706 755.098 141.421C755.098 142.136 755.379 142.822 755.881 143.331L776.271 163.881C776.78 164.383 777.466 164.664 778.181 164.664C778.896 164.664 779.582 164.383 780.091 163.881L818.831 125.421C819.331 124.919 819.611 124.239 819.611 123.531C819.611 122.823 819.331 122.143 818.831 121.641V121.641Z" fill="#3ABA86"/>
<path d="M524.831 309.641L519.771 304.551C519.522 304.299 519.225 304.099 518.898 303.963C518.571 303.826 518.22 303.756 517.866 303.756C517.512 303.756 517.161 303.826 516.834 303.963C516.507 304.099 516.21 304.299 515.961 304.551L484.201 336.001L470.771 322.461C470.524 322.211 470.229 322.013 469.905 321.878C469.581 321.742 469.233 321.673 468.881 321.673C468.53 321.673 468.182 321.742 467.857 321.878C467.533 322.013 467.238 322.211 466.991 322.461L461.881 327.461C461.379 327.97 461.098 328.656 461.098 329.371C461.098 330.086 461.379 330.772 461.881 331.281L482.271 351.831C482.78 352.333 483.466 352.614 484.181 352.614C484.896 352.614 485.582 352.333 486.091 351.831L524.831 313.371C525.316 312.871 525.586 312.202 525.586 311.506C525.586 310.81 525.316 310.141 524.831 309.641V309.641Z" fill="#3ABA86"/>
</g>
<defs>
<clipPath id="clip0">
<rect width="876" height="502" fill="white"/>
</clipPath>
</defs>
</svg>
